<?xml version="1.0" standalone="no"?>
<!DOCTYPE svg PUBLIC "-//W3C//DTD SVG 20010904//EN"
 "http://www.w3.org/TR/2001/REC-SVG-20010904/DTD/svg10.dtd">
<svg version="1.0" xmlns="http://www.w3.org/2000/svg"
 width="700.000000pt" height="700.000000pt" viewBox="0 0 700.000000 700.000000"
 preserveAspectRatio="xMidYMid meet">
<metadata>
Created by potrace 1.14, written by Peter Selinger 2001-2017
</metadata>
<g transform="translate(0.000000,700.000000) scale(0.100000,-0.100000)"
fill="#000000" stroke="none">
<path d="M3210 6994 c-397 -47 -622 -97 -901 -198 -1142 -414 -1993 -1395
-2238 -2579 -56 -270 -66 -381 -66 -727 1 -336 8 -415 61 -685 150 -755 556
-1448 1149 -1961 446 -386 1004 -660 1590 -779 208 -42 350 -57 620 -62 287
-5 451 6 687 47 1419 248 2556 1365 2827 2780 49 253 55 331 56 665 0 349 -8
443 -66 722 -283 1375 -1373 2450 -2759 2722 -221 44 -318 52 -625 56 -165 2
-316 1 -335 -1z m-130 -2019 c0 -503 3 -915 6 -915 3 0 29 20 57 44 231 195
548 318 890 346 194 15 369 -10 487 -70 160 -82 280 -239 347 -455 l27 -90 7
-800 c7 -884 6 -879 73 -1055 45 -120 89 -192 167 -271 46 -46 88 -77 142
-104 l77 -38 0 -79 0 -78 -925 0 -925 0 0 78 0 78 75 13 c197 33 354 179 400
372 12 54 15 185 15 860 0 452 -4 818 -9 845 -16 85 -49 157 -99 219 -158 198
-437 243 -648 107 -91 -59 -149 -133 -195 -247 l-24 -60 -3 -827 c-2 -719 -1
-836 13 -894 43 -186 186 -328 374 -370 l71 -16 0 -79 0 -79 -920 0 -920 0 0
79 0 79 45 7 c188 28 324 197 399 495 l26 103 0 1306 c0 1449 3 1378 -67 1520
-52 106 -167 221 -280 279 -46 24 -83 48 -83 55 0 15 1094 521 1170 541 30 8
94 15 143 15 l87 1 0 -915z"/>
</g>
</svg>
