<svg id="Layer_1" data-name="Layer 1" xmlns="http://www.w3.org/2000/svg" xmlns:xlink="http://www.w3.org/1999/xlink" viewBox="0 0 879.19 595.28"><defs><style>.cls-1,.cls-48{fill:none;}.cls-2{fill:#fff3e4;}.cls-3{fill:url(#linear-gradient);}.cls-4{fill:url(#linear-gradient-2);}.cls-5{fill:#343435;}.cls-6{fill:url(#linear-gradient-3);}.cls-7{fill:url(#linear-gradient-4);}.cls-8{fill:url(#linear-gradient-5);}.cls-9{fill:url(#linear-gradient-6);}.cls-10{fill:url(#linear-gradient-7);}.cls-11{fill:url(#linear-gradient-8);}.cls-12{fill:url(#New_Gradient_Swatch_1);}.cls-13{fill:url(#linear-gradient-9);}.cls-14{fill:url(#linear-gradient-10);}.cls-15{fill:url(#linear-gradient-11);}.cls-16{fill:url(#linear-gradient-12);}.cls-17{fill:#d33f44;}.cls-18{fill:#bebdbe;}.cls-19{fill:url(#linear-gradient-13);}.cls-20{fill:url(#linear-gradient-14);}.cls-21{fill:url(#linear-gradient-15);}.cls-22{fill:url(#linear-gradient-16);}.cls-23{clip-path:url(#clip-path);}.cls-24{opacity:0.88;}.cls-25,.cls-26{fill:#f2cfa7;}.cls-26,.cls-30{opacity:0.29;}.cls-27{fill:#f16465;opacity:0.21;}.cls-28{fill:#f2d7b9;}.cls-29,.cls-30{fill:#f3cb9d;}.cls-31{opacity:0.52;}.cls-32,.cls-33,.cls-34,.cls-35{fill:#fff;}.cls-33,.cls-55{opacity:0.5;}.cls-34{opacity:0.33;}.cls-35{opacity:0.4;}.cls-36{clip-path:url(#clip-path-2);}.cls-37{fill:url(#linear-gradient-17);}.cls-38{fill:#9e4a23;}.cls-39{fill:#ca6f44;}.cls-40{fill:#b35427;}.cls-41{fill:url(#linear-gradient-18);}.cls-42{fill:url(#linear-gradient-19);}.cls-43{fill:url(#linear-gradient-20);}.cls-44{fill:#cabdb8;}.cls-45{fill:url(#linear-gradient-21);}.cls-46{fill:url(#linear-gradient-22);}.cls-47{fill:url(#linear-gradient-23);}.cls-48{stroke:#e91d2c;stroke-linecap:round;stroke-miterlimit:10;}.cls-49{fill:#2b1213;}.cls-50{fill:url(#linear-gradient-24);}.cls-51{fill:#f5a183;}.cls-52{fill:url(#linear-gradient-25);}.cls-53{fill:#542819;}.cls-54{fill:#905c31;}</style><linearGradient id="linear-gradient" x1="145.31" y1="117.77" x2="213.52" y2="117.77" gradientUnits="userSpaceOnUse"><stop offset="0" stop-color="#2d2b2c"/><stop offset="1" stop-color="#586175"/></linearGradient><linearGradient id="linear-gradient-2" x1="166.73" y1="124.76" x2="202.58" y2="124.76" gradientUnits="userSpaceOnUse"><stop offset="0" stop-color="#61605d"/><stop offset="1" stop-color="#444b5b"/></linearGradient><linearGradient id="linear-gradient-3" x1="95.57" y1="122.29" x2="119.61" y2="122.29" gradientUnits="userSpaceOnUse"><stop offset="0" stop-color="#fef7f7"/><stop offset="1" stop-color="#fcd7d8"/></linearGradient><linearGradient id="linear-gradient-4" x1="111.2" y1="131.4" x2="146.63" y2="131.4" gradientUnits="userSpaceOnUse"><stop offset="0" stop-color="#fddbd4"/><stop offset="1" stop-color="#f79b89"/></linearGradient><linearGradient id="linear-gradient-5" x1="130.34" y1="426.16" x2="168.61" y2="441.77" gradientTransform="translate(-27.68 49.66) rotate(-5.88)" gradientUnits="userSpaceOnUse"><stop offset="0" stop-color="#af6d5b"/><stop offset="1" stop-color="#e39f79"/></linearGradient><linearGradient id="linear-gradient-6" x1="93.34" y1="424.16" x2="135.14" y2="441.2" gradientTransform="translate(-27.68 49.66) rotate(-5.88)" gradientUnits="userSpaceOnUse"><stop offset="0" stop-color="#2b2b30"/><stop offset="1" stop-color="#35353b"/></linearGradient><linearGradient id="linear-gradient-7" x1="279.6" y1="294.82" x2="234.16" y2="382.33" gradientTransform="translate(-27.68 49.66) rotate(-5.88)" gradientUnits="userSpaceOnUse"><stop offset="0" stop-color="#181a1e"/><stop offset="1" stop-color="#1b1c20"/></linearGradient><linearGradient id="linear-gradient-8" x1="275.57" y1="271.77" x2="366.35" y2="308.78" gradientTransform="translate(-27.68 49.66) rotate(-5.88)" gradientUnits="userSpaceOnUse"><stop offset="0" stop-color="#1e2122"/><stop offset="0.41" stop-color="#232627"/><stop offset="0.77" stop-color="#2b2d2e"/><stop offset="1" stop-color="#333435"/></linearGradient><linearGradient id="New_Gradient_Swatch_1" x1="273.6" y1="322.16" x2="388.73" y2="369.11" gradientTransform="matrix(0.99, -0.1, 0.11, 1.03, -28.93, 37.45)" gradientUnits="userSpaceOnUse"><stop offset="0" stop-color="#313334"/><stop offset="1" stop-color="#444242"/></linearGradient><linearGradient id="linear-gradient-9" x1="105.51" y1="250.44" x2="293.19" y2="326.97" gradientTransform="translate(-27.68 49.66) rotate(-5.88)" gradientUnits="userSpaceOnUse"><stop offset="0" stop-color="#333435"/><stop offset="0.76" stop-color="#41424a"/><stop offset="0.9" stop-color="#3f4047"/><stop offset="0.98" stop-color="#3a3b3f"/><stop offset="1" stop-color="#39393c"/></linearGradient><linearGradient id="linear-gradient-10" x1="168.08" y1="272.23" x2="327.83" y2="272.23" gradientTransform="translate(-27.68 49.66) rotate(-5.88)" gradientUnits="userSpaceOnUse"><stop offset="0" stop-color="#434957"/><stop offset="1" stop-color="#262c30"/></linearGradient><linearGradient id="linear-gradient-11" x1="210.65" y1="235.33" x2="339.05" y2="235.33" gradientTransform="translate(-27.68 49.66) rotate(-5.88)" gradientUnits="userSpaceOnUse"><stop offset="0" stop-color="#434957"/><stop offset="1" stop-color="#303132"/></linearGradient><linearGradient id="linear-gradient-12" x1="166.56" y1="249.39" x2="195.84" y2="249.39" gradientTransform="translate(-27.68 49.66) rotate(-5.88)" gradientUnits="userSpaceOnUse"><stop offset="0" stop-color="#e5e4e3"/><stop offset="1" stop-color="#d3d4d3"/></linearGradient><linearGradient id="linear-gradient-13" x1="177.87" y1="250.22" x2="242.39" y2="250.22" gradientTransform="translate(-27.68 49.66) rotate(-5.88)" gradientUnits="userSpaceOnUse"><stop offset="0" stop-color="#f5b88b"/><stop offset="1" stop-color="#be755f"/></linearGradient><linearGradient id="linear-gradient-14" x1="166.55" y1="253.05" x2="180.68" y2="253.05" gradientTransform="translate(-27.68 49.66) rotate(-5.88)" gradientUnits="userSpaceOnUse"><stop offset="0" stop-color="#f6be9a"/><stop offset="1" stop-color="#e2a27c"/></linearGradient><linearGradient id="linear-gradient-15" x1="281.92" y1="332.18" x2="213.52" y2="463.9" gradientTransform="translate(-27.68 49.66) rotate(-5.88)" gradientUnits="userSpaceOnUse"><stop offset="0" stop-color="#2d2c2d"/><stop offset="1" stop-color="#2d2c2d"/></linearGradient><linearGradient id="linear-gradient-16" x1="266.91" y1="327.63" x2="275.45" y2="331.11" xlink:href="#linear-gradient-8"/><clipPath id="clip-path"><path class="cls-1" d="M348.21,269q19.34,43.95,38.68,87.9c31.62,71.88-2,119.25,30.36,146,11.8,9.78,25.62,12.9,27.88,13.39,26.79,5.77,42.19-9.19,64.36-13.64,45.56-9.15,62.65,37.56,106.5,37.35,56.79-.27,99.21-79.58,117.16-113.18,11.94-22.35,41.27-79.07,35.23-157-1-13.55-7.55-84.3-60.51-151.66C695.36,102.23,644,39.63,557.69,18.27c-7.14-1.77-12.67-2.86-16-3.53C470.12.6,414.94,19.57,377.74,32.36c-5.57,1.92-67.4,23.84-104.17,68.94-14.24,17.47-17.6,30.13-16.85,41.36,1.18,17.54,12.12,29.47,16.26,33.57,2.14,2,5.36,5,9.24,8.62,14.78,13.92,26.54,25.32,29,28.08A249.62,249.62,0,0,1,348.21,269Z"/></clipPath><clipPath id="clip-path-2"><path class="cls-1" d="M348.21,269q19.34,43.95,38.68,87.9c19.19,38.34,26.31,102,30.36,146,1.59,17.27,10.38,30.53,19.3,42.55A206.19,206.19,0,0,1,456,576.91h0q2.56,5.19,4.62,10.6l3,7.77H741.89V0H226.17q2.42,31.08,4.82,62.17c.42,5.4.71,10.81,1,16.23a155.18,155.18,0,0,0,20.43,70.73,149.38,149.38,0,0,0,13.36,19.35,116.43,116.43,0,0,0,16.48,16.37,247.91,247.91,0,0,1,29,28.08A249.62,249.62,0,0,1,348.21,269Z"/></clipPath><linearGradient id="linear-gradient-17" x1="403.12" y1="153.67" x2="358.14" y2="210.52" gradientTransform="translate(-27.68 49.66) rotate(-5.88)" gradientUnits="userSpaceOnUse"><stop offset="0" stop-color="#e7a67d"/><stop offset="0.47" stop-color="#e4a27b"/><stop offset="0.94" stop-color="#dc9674"/><stop offset="1" stop-color="#db9473"/></linearGradient><linearGradient id="linear-gradient-18" x1="500.96" y1="172.51" x2="510.66" y2="159.24" gradientTransform="translate(-27.68 49.66) rotate(-5.88)" gradientUnits="userSpaceOnUse"><stop offset="0" stop-color="#e6a07a"/><stop offset="0.99" stop-color="#e6a07a"/><stop offset="1" stop-color="#e6a07a"/></linearGradient><linearGradient id="linear-gradient-19" x1="497.97" y1="214.12" x2="432.89" y2="198.05" gradientTransform="translate(-27.68 49.66) rotate(-5.88)" gradientUnits="userSpaceOnUse"><stop offset="0" stop-color="#e5a17b"/><stop offset="0.39" stop-color="#e19d79"/><stop offset="0.78" stop-color="#d69171"/><stop offset="1" stop-color="#cc876b"/></linearGradient><linearGradient id="linear-gradient-20" x1="399.84" y1="189.67" x2="333.07" y2="274.06" gradientTransform="translate(-27.68 49.66) rotate(-5.88)" gradientUnits="userSpaceOnUse"><stop offset="0" stop-color="#fbf9f8"/><stop offset="0.29" stop-color="#f9f6f4"/><stop offset="0.58" stop-color="#f3ebe8"/><stop offset="0.86" stop-color="#e9dad4"/><stop offset="1" stop-color="#e3cfc8"/></linearGradient><linearGradient id="linear-gradient-21" x1="598.33" y1="369.27" x2="553.98" y2="358.32" xlink:href="#linear-gradient-19"/><linearGradient id="linear-gradient-22" x1="457.16" y1="279" x2="467.58" y2="380.8" gradientTransform="translate(-27.68 49.66) rotate(-5.88)" gradientUnits="userSpaceOnUse"><stop offset="0" stop-color="#fdfbfa"/><stop offset="0.24" stop-color="#fbf8f6"/><stop offset="0.48" stop-color="#f6edea"/><stop offset="0.71" stop-color="#eddcd6"/><stop offset="0.94" stop-color="#e1c4bb"/><stop offset="1" stop-color="#ddbdb3"/></linearGradient><linearGradient id="linear-gradient-23" x1="606.44" y1="340.87" x2="611.66" y2="391.79" xlink:href="#linear-gradient-22"/><linearGradient id="linear-gradient-24" x1="357.86" y1="159.05" x2="410.75" y2="159.05" gradientTransform="translate(-27.68 49.66) rotate(-5.88)" gradientUnits="userSpaceOnUse"><stop offset="0" stop-color="#e6a07a"/><stop offset="0.81" stop-color="#e6a37e"/><stop offset="1" stop-color="#e6a580"/></linearGradient><linearGradient id="linear-gradient-25" x1="361.65" y1="169.75" x2="381.89" y2="169.75" xlink:href="#linear-gradient-24"/></defs><path class="cls-2" d="M348.21,269q19.34,43.95,38.68,87.9c31.62,71.88-2,119.25,30.36,146,11.8,9.78,25.62,12.9,27.88,13.39,26.79,5.77,42.19-9.19,64.36-13.64,45.56-9.15,62.65,37.56,106.5,37.35,56.79-.27,99.21-79.58,117.16-113.18,11.94-22.35,41.27-79.07,35.23-157-1-13.55-7.55-84.3-60.51-151.66C695.36,102.23,644,39.63,557.69,18.27c-7.14-1.77-12.67-2.86-16-3.53C470.12.6,414.94,19.57,377.74,32.36c-5.57,1.92-67.4,23.84-104.17,68.94-14.24,17.47-17.6,30.13-16.85,41.36,1.18,17.54,12.12,29.47,16.26,33.57,2.14,2,5.36,5,9.24,8.62,14.78,13.92,26.54,25.32,29,28.08A249.62,249.62,0,0,1,348.21,269Z"/><g id="grad_cap" data-name="grad cap"><polygon class="cls-3" points="147.85 94.61 213.52 82.9 207.92 132.79 145.31 152.64 147.85 94.61"/><path class="cls-4" d="M166.94,132.79s-4.07-28,23.68-27.23l12,12.21s-10.63-2.68-17.92,11c-4.23,7.89-5.24,12-5.24,15.27Z"/><path class="cls-5" d="M179.42,144s6.09,5.77,17.56-11.71c5.34-8.14,9.39-18.61,0-17.56C187.82,115.74,174.58,135.84,179.42,144Z"/><path class="cls-6" d="M111.2,136.35S90.08,126.94,97,107.59c0,0,7.81,24.7,22.66,28C119.61,135.62,118.58,138.13,111.2,136.35Z"/><path class="cls-7" d="M146.63,122.6s-14.3,13.75-35.43,13.75c0,0,15.44,10.42,35-3.06Z"/></g><path class="cls-8" d="M176,448.64l-21.77,4.59s-17.42,16-10.66,26.88l41.3-6.94Z"/><path class="cls-9" d="M158.48,452.34s-5.13-10.57-15.07-10.62c0,0-8.13,7.15-8,11.1s-11.27,10.49-13.4,10.71-18.63,12.13-21.06,25c0,0,4.08,5.76,10.88,4s24.43-11.17,31.76-12.4C143.6,480.11,137.78,467.71,158.48,452.34Z"/><path class="cls-10" d="M223.41,397.69s25-2.77,46.36,6,41-75.54,18.15-86.55S197.56,376.91,223.41,397.69Z"/><path class="cls-11" d="M359.2,294.44s-3.31,22.27,4.5,40.8c0,0-67.73,28.19-93.37,16.6,0,0-2.6-12.19-1.21-40.48s69.64-62.21,69.64-62.21Z"/><path class="cls-12" d="M333.33,402.86c10.12.11,44.79-8.51,63.8-24.69l-24.59-53.9s-7.07,4-11.19,4.7-34.43-5.14-82.87,16.82h0S275.34,402.23,333.33,402.86Z"/><path class="cls-13" d="M339.64,252.76S192,436.45,190.67,439c0,0-18.75-2.64-29.17-38.1-2.07-7-9.76-17.49-16.71-24.06-7.44-7-29.68-20.86-31-64-.59-18.74,2.16-33.8,11.65-43.37,0,0,9.15.13,32.12,9.32s66.77,4.13,86.31-4.33,78.59-47.77,78.59-47.77l.82.58a40.9,40.9,0,0,1,16.39,25.43Z"/><path class="cls-14" d="M178.3,283.26s-16.94,13.63-8,33.12,30.41,25.88,56,16.8,82.58-58.82,96.1-84l-104.58,33S189.05,286,178.3,283.26Z"/><path class="cls-15" d="M312.09,212.17s-14.48,13.31-44.08,18-64.35,9.65-64.35,9.65a39,39,0,0,1,18,7.47c2,1.51,11.83,9,14,21.12,2.57,14.42-6.54,30.49-6.54,30.49h0s92-44.14,103.79-57.09Z"/><path class="cls-5" d="M206.1,239.33a4.07,4.07,0,0,0-4.52,3.92c-1.21,10-1.05,35.78,27.57,55.62,4,2.8,18.19-12.4,5.09-37.56C224.53,242.65,213.5,239.59,206.1,239.33Z"/><path class="cls-16" d="M159.38,240.16s9.79-4.77,16.6-3l3.59,34.91,17.13,44.58s-.63,2.6-9,4.37-8.82-.4-8.82-.4l-7.91-47.3Z"/><path class="cls-17" d="M173.49,288.66a27.35,27.35,0,0,1,10.73-4.46l-4.65-12.1-8.64,1.25Z"/><path class="cls-18" d="M178.84,320.65s.67,2.66,10.55,0c.88-.23,5.68-1.08,7.31-4a6,6,0,0,0-2.8-.92,21.49,21.49,0,0,0-12.05,2.31A18.76,18.76,0,0,0,178.84,320.65Z"/><path class="cls-19" d="M232.84,258.74s-25.64,14.72-30.27,14.12c-2.07-.26-9.71-1.22-25-2.89-.86-.1-3-.31-3.51.64s.86,2.53,1.19,2.92a16.94,16.94,0,0,0,6.3,4.07s2.06,5.14,3.7,10.39c1.24,4,2.18,7.18,5.48,6.3,7.67-2,41.14-12.18,47.76-15.72,1.65-.94.5-3.86.1-6C237.44,266.54,232.84,258.74,232.84,258.74Z"/><path class="cls-20" d="M171.43,276.52c1.81-1.23,2.58-3,2.09-4.07s-2.17-1.3-3-1.39a7,7,0,0,0-5.83,2.07c-.63.72-2,2.47-1.09,7.24,1.87,9.48,5.37,15.56,9.32,15.69s6.81-3.38,5.73-5.24a5.25,5.25,0,0,0-3.63-2.14,4.5,4.5,0,0,0,1.22-2.11,3.44,3.44,0,0,0-.33-2.88,6.21,6.21,0,0,0-2.5-1.11h0S176.86,278.82,171.43,276.52Z"/><path class="cls-21" d="M279.58,355.8l-27,74.41-77.08,15.73L183,487.07s75.43-13.41,93.52-20.37,21.73-5.47,34.6-24S343.7,394,343.7,394Z"/><path class="cls-22" d="M270.33,351.84s1.58-3.73,8.08-5.79l.84,8.14A28.74,28.74,0,0,1,270.33,351.84Z"/><g class="cls-23"><g class="cls-24"><rect class="cls-25" x="357.4" y="304.42" width="48.3" height="190.2"/><rect class="cls-25" x="365.3" y="290.78" width="32.52" height="79.93"/><rect class="cls-25" x="372.54" y="282.13" width="18.04" height="44.34"/><polygon class="cls-25" points="387.7 304.91 375.41 304.91 375.41 274.7 379.84 274.7 384.24 274.7 387.7 274.7 387.7 304.91"/><polygon class="cls-25" points="380.75 291.76 379.41 291.76 379.41 261.54 379.89 261.54 380.37 261.54 380.75 261.54 380.75 291.76"/><polygon class="cls-25" points="383.7 281.31 382.37 281.31 382.37 251.1 382.85 251.1 383.32 251.1 383.7 251.1 383.7 281.31"/><rect class="cls-25" x="356.11" y="303.93" width="50.88" height="2.02"/><rect class="cls-25" x="364.11" y="289.81" width="34.89" height="1.95"/><rect class="cls-25" x="371.22" y="281.31" width="20.11" height="1.5"/><rect class="cls-26" x="368.29" y="294.02" width="1.51" height="8.38"/><rect class="cls-26" x="372.47" y="294.02" width="1.51" height="8.38"/><rect class="cls-26" x="376.65" y="294.02" width="1.51" height="8.38"/><rect class="cls-26" x="380.83" y="294.02" width="1.51" height="8.38"/><rect class="cls-26" x="385.02" y="294.02" width="1.51" height="8.38"/><rect class="cls-26" x="389.2" y="294.02" width="1.51" height="8.38"/><rect class="cls-26" x="393.38" y="294.02" width="1.51" height="8.38"/><rect class="cls-25" x="361.64" y="312" width="3.65" height="9.94"/><rect class="cls-26" x="368.88" y="312" width="3.65" height="9.94"/><rect class="cls-25" x="376.11" y="312" width="3.65" height="9.94"/><rect class="cls-25" x="383.35" y="312" width="3.65" height="9.94"/><rect class="cls-25" x="390.58" y="312" width="3.65" height="9.94"/><rect class="cls-25" x="397.81" y="312" width="3.65" height="9.94"/><rect class="cls-25" x="361.64" y="327.49" width="3.65" height="9.94"/><rect class="cls-25" x="368.88" y="327.49" width="3.65" height="9.94"/><rect class="cls-25" x="376.11" y="327.49" width="3.65" height="9.94"/><rect class="cls-26" x="383.35" y="327.49" width="3.65" height="9.94"/><rect class="cls-25" x="390.58" y="327.49" width="3.65" height="9.94"/><rect class="cls-25" x="397.81" y="327.49" width="3.65" height="9.94"/><rect class="cls-25" x="361.64" y="342.98" width="3.65" height="9.94"/><rect class="cls-25" x="368.88" y="342.98" width="3.65" height="9.94"/><rect class="cls-25" x="376.11" y="342.98" width="3.65" height="9.94"/><rect class="cls-25" x="383.35" y="342.98" width="3.65" height="9.94"/><rect class="cls-26" x="390.58" y="342.98" width="3.65" height="9.94"/><rect class="cls-26" x="397.81" y="342.98" width="3.65" height="9.94"/><rect class="cls-26" x="361.64" y="358.47" width="3.65" height="9.94"/><rect class="cls-25" x="368.88" y="358.47" width="3.65" height="9.94"/><rect class="cls-25" x="376.11" y="358.47" width="3.65" height="9.94"/><rect class="cls-25" x="383.35" y="358.47" width="3.65" height="9.94"/><rect class="cls-25" x="390.58" y="358.47" width="3.65" height="9.94"/><rect class="cls-25" x="397.81" y="358.47" width="3.65" height="9.94"/><rect class="cls-25" x="361.64" y="373.95" width="3.65" height="9.94"/><rect class="cls-26" x="368.88" y="373.95" width="3.65" height="9.94"/><rect class="cls-25" x="376.11" y="373.95" width="3.65" height="9.94"/><rect class="cls-26" x="383.35" y="373.95" width="3.65" height="9.94"/><rect class="cls-25" x="390.58" y="373.95" width="3.65" height="9.94"/><rect class="cls-25" x="397.81" y="373.95" width="3.65" height="9.94"/><rect class="cls-25" x="361.64" y="389.44" width="3.65" height="9.94"/><rect class="cls-25" x="368.88" y="389.44" width="3.65" height="9.94"/><rect class="cls-25" x="376.11" y="389.44" width="3.65" height="9.94"/><rect class="cls-25" x="383.35" y="389.44" width="3.65" height="9.94"/><rect class="cls-25" x="390.58" y="389.44" width="3.65" height="9.94"/><rect class="cls-26" x="397.81" y="389.44" width="3.65" height="9.94"/><rect class="cls-25" x="361.64" y="404.93" width="3.65" height="9.94"/><rect class="cls-26" x="368.88" y="404.93" width="3.65" height="9.94"/><rect class="cls-26" x="376.11" y="404.93" width="3.65" height="9.94"/><rect class="cls-25" x="383.35" y="404.93" width="3.65" height="9.94"/><rect class="cls-25" x="390.58" y="404.93" width="3.65" height="9.94"/><rect class="cls-25" x="397.81" y="404.93" width="3.65" height="9.94"/><rect class="cls-25" x="361.64" y="420.42" width="3.65" height="9.94"/><rect class="cls-25" x="368.88" y="420.42" width="3.65" height="9.94"/><rect class="cls-25" x="376.11" y="420.42" width="3.65" height="9.94"/><rect class="cls-25" x="383.35" y="420.42" width="3.65" height="9.94"/><rect class="cls-26" x="390.58" y="420.42" width="3.65" height="9.94"/><rect class="cls-25" x="397.81" y="420.42" width="3.65" height="9.94"/><rect class="cls-25" x="361.64" y="435.91" width="3.65" height="9.94"/><rect class="cls-26" x="368.88" y="435.91" width="3.65" height="9.94"/><rect class="cls-25" x="376.11" y="435.91" width="3.65" height="9.94"/><rect class="cls-25" x="383.35" y="435.91" width="3.65" height="9.94"/><rect class="cls-25" x="390.58" y="435.91" width="3.65" height="9.94"/><rect class="cls-25" x="397.81" y="435.91" width="3.65" height="9.94"/><rect class="cls-25" x="361.64" y="451.4" width="3.65" height="9.94"/><rect class="cls-25" x="368.88" y="451.4" width="3.65" height="9.94"/><rect class="cls-25" x="376.11" y="451.4" width="3.65" height="9.94"/><rect class="cls-26" x="383.35" y="451.4" width="3.65" height="9.94"/><rect class="cls-25" x="390.58" y="451.4" width="3.65" height="9.94"/><rect class="cls-26" x="397.81" y="451.4" width="3.65" height="9.94"/><rect class="cls-26" x="361.64" y="466.89" width="3.65" height="9.94"/><rect class="cls-25" x="368.88" y="466.89" width="3.65" height="9.94"/><rect class="cls-26" x="376.11" y="466.89" width="3.65" height="9.94"/><rect class="cls-25" x="383.35" y="466.89" width="3.65" height="9.94"/><rect class="cls-25" x="390.58" y="466.89" width="3.65" height="9.94"/><rect class="cls-25" x="397.81" y="466.89" width="3.65" height="9.94"/><rect class="cls-25" x="217.12" y="311.65" width="77.65" height="160.23"/><rect class="cls-25" x="214.91" y="308.9" width="82.06" height="4.53"/><rect class="cls-25" x="219.73" y="303.1" width="72.43" height="21.53"/><rect class="cls-25" x="225.27" y="294.29" width="28.68" height="23.52"/><polygon class="cls-25" points="241.87 300.92 225.27 300.92 225.27 288.54 237.18 288.54 241.87 300.92"/><rect class="cls-25" x="231.96" y="278.26" width="1.61" height="27.58"/><path class="cls-25" d="M234.21,276.83a1.45,1.45,0,1,1-1.44-1.43A1.43,1.43,0,0,1,234.21,276.83Z"/><polygon class="cls-25" points="937.77 484.08 852.77 484.08 842.17 248.5 937.77 268.13 937.77 484.08"/><polygon class="cls-25" points="566.95 349.54 566.95 270.78 553.62 270.78 553.62 249.68 548.85 249.68 548.85 218.74 522.62 218.74 522.62 196 520.28 196 520.28 218.74 515.14 218.74 515.14 190.28 512.81 190.28 512.81 218.74 496.22 218.74 496.22 270.78 487.65 270.78 487.65 349.54 480.31 349.54 480.31 493 572.11 493 572.11 349.54 566.95 349.54"/><rect class="cls-27" x="108.6" y="481.16" width="1015.55" height="23.89"/><rect class="cls-28" x="72.16" y="502.67" width="1066.28" height="37.68"/><polygon class="cls-28" points="669.53 334.35 669.53 294.87 655.09 294.87 655.09 279.84 647.36 279.84 647.36 267.22 644.65 267.22 644.65 245.58 643.95 245.58 643.95 267.22 641.24 267.22 641.24 279.84 633.52 279.84 633.52 294.87 619.19 294.87 619.19 334.35 616.21 334.35 616.21 406.02 593.99 406.02 593.99 487.72 616.21 487.72 638.43 487.72 672.4 487.72 672.4 334.35 669.53 334.35"/><polygon class="cls-28" points="752.51 379.69 682.62 379.69 682.62 380.95 685.78 380.95 685.78 497.86 749.35 497.86 749.35 380.95 752.51 380.95 752.51 379.69"/><rect class="cls-28" x="371.85" y="408.81" width="61.97" height="97.39"/><rect class="cls-28" x="255.94" y="458.71" width="106.57" height="47.49"/><rect class="cls-28" x="313.07" y="352.61" width="23.4" height="116.62"/><rect class="cls-28" x="318.23" y="321.5" width="1.22" height="63.42"/><rect class="cls-28" x="322.18" y="326.31" width="1.22" height="63.42"/><rect class="cls-28" x="314.87" y="345.39" width="14.3" height="15.63"/><rect class="cls-28" x="358.34" y="426.25" width="40.71" height="79.95"/><rect class="cls-28" x="443.86" y="341.64" width="76.43" height="164.57"/><rect class="cls-28" x="451.37" y="335.98" width="61.41" height="27.41"/><rect class="cls-28" x="437.93" y="345.08" width="88.28" height="1.92"/><rect class="cls-28" x="430.01" y="423.09" width="36.01" height="83.11"/><rect class="cls-28" x="172.08" y="419.94" width="41.32" height="86.27"/><rect class="cls-28" x="185.45" y="396.49" width="82.34" height="109.71"/><rect class="cls-28" x="180.65" y="392.28" width="89.27" height="4.21"/><rect class="cls-28" x="189.1" y="380.86" width="36.19" height="22.24"/><rect class="cls-28" x="237.11" y="380.86" width="6.08" height="13.53"/><rect class="cls-28" x="249.26" y="380.86" width="6.68" height="13.53"/><rect class="cls-28" x="149.6" y="472.84" width="43.15" height="33.36"/><rect class="cls-28" x="133.3" y="458.71" width="20.43" height="47.49"/><rect class="cls-28" x="108.6" y="489.52" width="34.92" height="16.68"/><rect class="cls-28" x="512.78" y="469.23" width="430.25" height="36.97"/><rect class="cls-28" x="720.21" y="438.78" width="37.27" height="48.94"/><polygon class="cls-28" points="706.38 499.2 661.41 499.2 678.93 410.11 706.38 410.11 706.38 499.2"/><rect class="cls-29" x="720.02" y="360.7" width="56.34" height="179.64"/><rect class="cls-29" x="715.81" y="361.76" width="64.76" height="1.82"/><rect class="cls-29" x="717.57" y="387" width="61.25" height="1.81"/><rect class="cls-29" x="717.57" y="411.44" width="61.25" height="1.81"/><rect class="cls-29" x="717.57" y="435.87" width="61.25" height="1.81"/><rect class="cls-29" x="717.57" y="460.31" width="61.25" height="1.81"/><rect class="cls-29" x="717.57" y="484.75" width="61.25" height="1.81"/><rect class="cls-29" x="717.57" y="509.19" width="61.25" height="1.81"/><rect class="cls-29" x="713.67" y="356.8" width="69.04" height="4.96"/><rect class="cls-30" x="725.09" y="369.48" width="5.85" height="14.35"/><rect class="cls-29" x="738.19" y="369.48" width="5.85" height="14.35"/><rect class="cls-29" x="751.28" y="369.48" width="5.85" height="14.35"/><rect class="cls-29" x="764.37" y="369.48" width="5.85" height="14.35"/><rect class="cls-29" x="725.09" y="392.95" width="5.85" height="14.35"/><rect class="cls-30" x="738.19" y="392.95" width="5.85" height="14.35"/><rect class="cls-29" x="751.28" y="392.95" width="5.85" height="14.35"/><rect class="cls-29" x="764.37" y="392.95" width="5.85" height="14.35"/><rect class="cls-29" x="725.09" y="417.39" width="5.85" height="14.35"/><rect class="cls-29" x="738.19" y="417.39" width="5.85" height="14.35"/><rect class="cls-29" x="751.28" y="417.39" width="5.85" height="14.35"/><rect class="cls-30" x="764.37" y="417.39" width="5.85" height="14.35"/><rect class="cls-29" x="725.09" y="441.82" width="5.85" height="14.35"/><rect class="cls-30" x="738.19" y="441.82" width="5.85" height="14.35"/><rect class="cls-30" x="751.28" y="441.82" width="5.85" height="14.35"/><rect class="cls-29" x="764.37" y="441.82" width="5.85" height="14.35"/><rect class="cls-30" x="725.09" y="466.26" width="5.85" height="14.35"/><rect class="cls-29" x="738.19" y="466.26" width="5.85" height="14.35"/><rect class="cls-29" x="751.28" y="466.26" width="5.85" height="14.35"/><rect class="cls-29" x="764.37" y="466.26" width="5.85" height="14.35"/><rect class="cls-29" x="725.09" y="490.7" width="5.85" height="14.35"/><rect class="cls-29" x="738.19" y="490.7" width="5.85" height="14.35"/><rect class="cls-30" x="751.28" y="490.7" width="5.85" height="14.35"/><rect class="cls-29" x="764.37" y="490.7" width="5.85" height="14.35"/><rect class="cls-29" x="725.09" y="515.14" width="5.85" height="14.35"/><rect class="cls-30" x="738.19" y="515.14" width="5.85" height="14.35"/><rect class="cls-29" x="751.28" y="515.14" width="5.85" height="14.35"/><rect class="cls-30" x="764.37" y="515.14" width="5.85" height="14.35"/><rect class="cls-29" x="723.58" y="349.95" width="19.16" height="9.33"/><rect class="cls-29" x="722.28" y="349.69" width="21.76" height="1.59"/><polygon class="cls-29" points="639.28 540.34 564.23 540.34 564.23 369.66 639.28 351.5 639.28 540.34"/><rect class="cls-29" x="560.93" y="366.65" width="6.59" height="173.69"/><rect class="cls-29" x="579.69" y="361.76" width="6.59" height="178.59"/><rect class="cls-29" x="598.46" y="356.67" width="6.59" height="183.67"/><rect class="cls-29" x="617.22" y="352.53" width="6.59" height="187.81"/><rect class="cls-29" x="635.98" y="348.13" width="6.59" height="192.22"/><rect class="cls-30" x="569.23" y="381.23" width="8.75" height="13.19"/><rect class="cls-30" x="588" y="381.23" width="8.75" height="13.19"/><rect class="cls-29" x="606.76" y="381.23" width="8.75" height="13.19"/><rect class="cls-30" x="625.52" y="381.23" width="8.75" height="13.19"/><rect class="cls-29" x="569.23" y="404.2" width="8.75" height="13.19"/><rect class="cls-29" x="588" y="404.2" width="8.75" height="13.19"/><rect class="cls-30" x="606.76" y="404.2" width="8.75" height="13.19"/><rect class="cls-30" x="625.52" y="404.2" width="8.75" height="13.19"/><rect class="cls-30" x="569.23" y="427.17" width="8.75" height="13.19"/><rect class="cls-30" x="588" y="427.17" width="8.75" height="13.19"/><rect class="cls-30" x="606.76" y="427.17" width="8.75" height="13.19"/><rect class="cls-29" x="625.52" y="427.17" width="8.75" height="13.19"/><rect class="cls-30" x="569.23" y="450.13" width="8.75" height="13.19"/><rect class="cls-29" x="588" y="450.13" width="8.75" height="13.19"/><rect class="cls-30" x="606.76" y="450.13" width="8.75" height="13.19"/><rect class="cls-30" x="625.52" y="450.13" width="8.75" height="13.19"/><rect class="cls-30" x="569.23" y="473.1" width="8.75" height="13.19"/><rect class="cls-30" x="588" y="473.1" width="8.75" height="13.19"/><rect class="cls-29" x="606.76" y="473.1" width="8.75" height="13.19"/><rect class="cls-30" x="625.52" y="473.1" width="8.75" height="13.19"/><rect class="cls-29" x="569.23" y="496.07" width="8.75" height="13.19"/><rect class="cls-29" x="588" y="496.07" width="8.75" height="13.19"/><rect class="cls-30" x="606.76" y="496.07" width="8.75" height="13.19"/><rect class="cls-30" x="625.52" y="496.07" width="8.75" height="13.19"/><rect class="cls-30" x="569.23" y="519.04" width="8.75" height="13.19"/><rect class="cls-29" x="588" y="519.04" width="8.75" height="13.19"/><rect class="cls-30" x="606.76" y="519.04" width="8.75" height="13.19"/><rect class="cls-29" x="625.52" y="519.04" width="8.75" height="13.19"/><polygon class="cls-29" points="350.15 377.83 350.15 379.61 348.36 379.61 348.36 384.65 379.76 384.65 379.76 540.34 328.24 540.34 328.24 392.78 328.24 384.65 328.24 379.61 326.36 379.61 326.36 377.83 350.15 377.83"/><rect class="cls-29" x="437.93" y="448.55" width="44.14" height="91.79"/><rect class="cls-29" x="245.56" y="427.51" width="35.88" height="112.83"/><rect class="cls-29" x="274.33" y="451.02" width="39.1" height="89.32"/><rect class="cls-29" x="258.47" y="422.98" width="15.86" height="13.5"/><rect class="cls-29" x="277.01" y="449.55" width="41.68" height="3.3"/><rect class="cls-29" x="309.23" y="489.33" width="43.84" height="51.01"/><rect class="cls-29" x="167.55" y="447.84" width="35.66" height="92.51"/><rect class="cls-29" x="136.61" y="493.94" width="46.91" height="46.41"/><rect class="cls-29" x="84.95" y="486.35" width="29.34" height="53.99"/><rect class="cls-29" x="108.6" y="523.43" width="69.35" height="16.91"/><rect class="cls-29" x="58.39" y="517.97" width="35.54" height="22.38"/><rect class="cls-29" x="203.21" y="506.2" width="55.26" height="34.14"/><rect class="cls-29" x="365.3" y="525.64" width="86.07" height="14.71"/><rect class="cls-29" x="517.9" y="525.64" width="86.07" height="14.71"/><polygon class="cls-29" points="448.02 482.46 415.3 482.46 401.47 532.99 448.02 532.99 448.02 482.46"/><rect class="cls-29" x="463.14" y="408.93" width="0.91" height="56.06"/><rect class="cls-29" x="467.69" y="427.9" width="1.22" height="33.08"/><rect class="cls-29" x="461.18" y="433.76" width="16.55" height="16.37"/><rect class="cls-29" x="458.39" y="432.49" width="21.92" height="1.47"/><rect class="cls-29" x="474.04" y="493" width="53.48" height="47.35"/><rect class="cls-29" x="517.3" y="440.88" width="34.36" height="91.35"/><rect class="cls-29" x="651.49" y="458.05" width="54.9" height="82.29"/><rect class="cls-29" x="634.27" y="510.02" width="62.59" height="30.32"/><rect class="cls-29" x="703.34" y="529.49" width="40.7" height="10.85"/><rect class="cls-29" x="766.03" y="510.02" width="66.17" height="30.32"/><rect class="cls-29" x="792.39" y="430.63" width="82.34" height="109.71"/><rect class="cls-29" x="790.26" y="426.42" width="89.27" height="4.21"/><rect class="cls-29" x="834.9" y="415" width="36.19" height="22.24"/><rect class="cls-29" x="817" y="415" width="6.08" height="13.53"/><rect class="cls-29" x="804.24" y="415" width="6.68" height="13.53"/><polygon class="cls-29" points="921.15 540.34 874.29 540.34 874.29 487.72 913.84 505.05 921.15 540.34"/></g><g class="cls-31"><rect class="cls-32" x="251" y="430.02" width="2.72" height="2.69"/><rect class="cls-32" x="256.46" y="430.02" width="2.72" height="2.69"/><rect class="cls-32" x="251" y="436.33" width="2.72" height="2.69"/><rect class="cls-32" x="256.46" y="436.33" width="2.72" height="2.69"/><rect class="cls-32" x="251" y="442.44" width="2.72" height="2.69"/><rect class="cls-32" x="262.52" y="430.02" width="2.72" height="2.69"/></g><rect class="cls-33" x="449.76" y="349.33" width="1.85" height="10.14"/><rect class="cls-33" x="456.14" y="349.33" width="1.85" height="10.14"/><rect class="cls-33" x="462.52" y="349.33" width="1.85" height="10.14"/><rect class="cls-33" x="468.91" y="349.33" width="1.85" height="10.14"/><rect class="cls-33" x="475.29" y="349.33" width="1.85" height="10.14"/><rect class="cls-33" x="481.67" y="349.33" width="1.85" height="10.14"/><rect class="cls-33" x="488.06" y="349.33" width="1.85" height="10.14"/><rect class="cls-33" x="494.44" y="349.33" width="1.85" height="10.14"/><rect class="cls-33" x="500.82" y="349.33" width="1.85" height="10.14"/><rect class="cls-33" x="507.21" y="349.33" width="1.85" height="10.14"/><rect class="cls-33" x="513.59" y="349.33" width="1.85" height="10.14"/><rect class="cls-33" x="449.76" y="363.45" width="1.85" height="10.14"/><rect class="cls-33" x="456.14" y="363.45" width="1.85" height="10.14"/><rect class="cls-33" x="462.52" y="363.45" width="1.85" height="10.14"/><rect class="cls-33" x="468.91" y="363.45" width="1.85" height="10.14"/><rect class="cls-33" x="475.29" y="363.45" width="1.85" height="10.14"/><rect class="cls-33" x="481.67" y="363.45" width="1.85" height="10.14"/><rect class="cls-33" x="488.06" y="363.45" width="1.85" height="10.14"/><rect class="cls-33" x="494.44" y="363.45" width="1.85" height="10.14"/><rect class="cls-33" x="500.82" y="363.45" width="1.85" height="10.14"/><rect class="cls-33" x="507.21" y="363.45" width="1.85" height="10.14"/><rect class="cls-33" x="513.59" y="363.45" width="1.85" height="10.14"/><rect class="cls-33" x="449.76" y="377.57" width="1.85" height="10.14"/><rect class="cls-33" x="456.14" y="377.57" width="1.85" height="10.14"/><rect class="cls-33" x="462.52" y="377.57" width="1.85" height="10.14"/><rect class="cls-33" x="468.91" y="377.57" width="1.85" height="10.14"/><rect class="cls-33" x="475.29" y="377.57" width="1.85" height="10.14"/><rect class="cls-33" x="481.67" y="377.57" width="1.85" height="10.14"/><rect class="cls-33" x="488.06" y="377.57" width="1.85" height="10.14"/><rect class="cls-33" x="494.44" y="377.57" width="1.85" height="10.14"/><rect class="cls-33" x="500.82" y="377.57" width="1.85" height="10.14"/><rect class="cls-33" x="507.21" y="377.57" width="1.85" height="10.14"/><rect class="cls-33" x="513.59" y="377.57" width="1.85" height="10.14"/><rect class="cls-33" x="468.91" y="391.69" width="1.85" height="10.14"/><rect class="cls-33" x="475.29" y="391.69" width="1.85" height="10.14"/><rect class="cls-33" x="481.67" y="391.69" width="1.85" height="10.14"/><rect class="cls-33" x="488.06" y="391.69" width="1.85" height="10.14"/><rect class="cls-33" x="494.44" y="391.69" width="1.85" height="10.14"/><rect class="cls-33" x="500.82" y="391.69" width="1.85" height="10.14"/><rect class="cls-33" x="507.21" y="391.69" width="1.85" height="10.14"/><rect class="cls-33" x="513.59" y="391.69" width="1.85" height="10.14"/><rect class="cls-33" x="475.29" y="406.6" width="1.85" height="10.14"/><rect class="cls-33" x="481.67" y="406.6" width="1.85" height="10.14"/><rect class="cls-33" x="488.06" y="406.6" width="1.85" height="10.14"/><rect class="cls-33" x="494.44" y="406.6" width="1.85" height="10.14"/><rect class="cls-33" x="500.82" y="406.6" width="1.85" height="10.14"/><rect class="cls-33" x="507.21" y="406.6" width="1.85" height="10.14"/><rect class="cls-33" x="513.59" y="406.6" width="1.85" height="10.14"/><rect class="cls-34" x="573.16" y="374.51" width="4.38" height="10.98"/><rect class="cls-34" x="573.16" y="395.51" width="4.38" height="10.98"/><rect class="cls-34" x="573.16" y="416.51" width="4.38" height="10.98"/><rect class="cls-34" x="573.16" y="437.51" width="4.38" height="10.98"/><rect class="cls-34" x="573.16" y="457.31" width="4.38" height="10.98"/><rect class="cls-34" x="573.16" y="478.31" width="4.38" height="10.98"/><rect class="cls-34" x="591.92" y="374.51" width="4.38" height="10.98"/><rect class="cls-34" x="591.92" y="395.51" width="4.38" height="10.98"/><rect class="cls-34" x="591.92" y="416.51" width="4.38" height="10.98"/><rect class="cls-34" x="591.92" y="437.51" width="4.38" height="10.98"/><rect class="cls-34" x="591.92" y="457.31" width="4.38" height="10.98"/><rect class="cls-34" x="591.92" y="478.31" width="4.38" height="10.98"/><rect class="cls-34" x="610.69" y="374.51" width="4.38" height="10.98"/><rect class="cls-34" x="610.69" y="395.51" width="4.38" height="10.98"/><rect class="cls-34" x="610.69" y="416.51" width="4.38" height="10.98"/><rect class="cls-34" x="610.69" y="437.51" width="4.38" height="10.98"/><rect class="cls-34" x="610.69" y="457.31" width="4.38" height="10.98"/><rect class="cls-34" x="610.69" y="478.31" width="4.38" height="10.98"/><rect class="cls-34" x="629.45" y="374.51" width="4.38" height="10.98"/><rect class="cls-34" x="629.45" y="395.51" width="4.38" height="10.98"/><rect class="cls-34" x="629.45" y="416.51" width="4.38" height="10.98"/><rect class="cls-34" x="629.45" y="437.51" width="4.38" height="10.98"/><rect class="cls-34" x="629.45" y="457.31" width="4.38" height="10.98"/><rect class="cls-34" x="629.45" y="478.31" width="4.38" height="10.98"/><rect class="cls-33" x="502.68" y="221.39" width="3.64" height="9.61"/><rect class="cls-33" x="511.66" y="221.39" width="3.64" height="9.61"/><rect class="cls-33" x="520.64" y="221.39" width="3.64" height="9.61"/><rect class="cls-33" x="529.63" y="221.39" width="3.64" height="9.61"/><rect class="cls-33" x="502.68" y="237.39" width="3.64" height="9.61"/><rect class="cls-33" x="511.66" y="237.39" width="3.64" height="9.61"/><rect class="cls-33" x="520.64" y="237.39" width="3.64" height="9.61"/><rect class="cls-33" x="529.63" y="237.39" width="3.64" height="9.61"/><rect class="cls-33" x="502.68" y="253.4" width="3.64" height="9.61"/><rect class="cls-33" x="511.66" y="253.4" width="3.64" height="9.61"/><rect class="cls-33" x="539.82" y="221.39" width="3.64" height="9.61"/><rect class="cls-35" x="260.2" y="318.74" width="2.32" height="8.81"/><rect class="cls-35" x="268.38" y="318.74" width="2.32" height="8.81"/><rect class="cls-35" x="277.93" y="318.74" width="2.32" height="8.81"/><rect class="cls-35" x="286.1" y="318.74" width="2.32" height="8.81"/><rect class="cls-35" x="242.05" y="318.74" width="2.32" height="8.81"/><rect class="cls-35" x="250.22" y="318.74" width="2.32" height="8.81"/><rect class="cls-35" x="260.2" y="334.03" width="2.32" height="8.81"/><rect class="cls-35" x="268.38" y="334.03" width="2.32" height="8.81"/><rect class="cls-35" x="277.93" y="334.03" width="2.32" height="8.81"/><rect class="cls-35" x="286.1" y="334.03" width="2.32" height="8.81"/><rect class="cls-35" x="242.05" y="334.03" width="2.32" height="8.81"/><rect class="cls-35" x="250.22" y="334.03" width="2.32" height="8.81"/><rect class="cls-35" x="260.2" y="349.33" width="2.32" height="8.81"/><rect class="cls-35" x="268.38" y="349.33" width="2.32" height="8.81"/><rect class="cls-35" x="277.93" y="349.33" width="2.32" height="8.81"/><rect class="cls-35" x="286.1" y="349.33" width="2.32" height="8.81"/><rect class="cls-35" x="242.05" y="349.33" width="2.32" height="8.81"/><rect class="cls-35" x="250.22" y="349.33" width="2.32" height="8.81"/><rect class="cls-33" x="692.31" y="386.24" width="3.59" height="13.66"/><rect class="cls-33" x="703.29" y="386.24" width="3.59" height="13.66"/><rect class="cls-33" x="713.62" y="386.24" width="3.59" height="13.66"/><rect class="cls-34" x="726.83" y="366.29" width="2.93" height="11.98"/><rect class="cls-34" x="741.39" y="366.29" width="2.93" height="11.98"/><rect class="cls-34" x="755.95" y="366.29" width="2.93" height="11.98"/><rect class="cls-34" x="770.5" y="366.29" width="2.93" height="11.98"/><rect class="cls-34" x="726.83" y="390.94" width="2.93" height="11.98"/><rect class="cls-34" x="741.39" y="390.94" width="2.93" height="11.98"/><rect class="cls-34" x="755.95" y="390.94" width="2.93" height="11.98"/><rect class="cls-34" x="770.5" y="390.94" width="2.93" height="11.98"/><rect class="cls-34" x="726.83" y="416.2" width="2.93" height="11.98"/><rect class="cls-34" x="741.39" y="416.2" width="2.93" height="11.98"/><rect class="cls-34" x="755.95" y="416.2" width="2.93" height="11.98"/><rect class="cls-34" x="770.5" y="416.2" width="2.93" height="11.98"/><rect class="cls-34" x="726.83" y="441.47" width="2.93" height="11.98"/><rect class="cls-34" x="741.39" y="441.47" width="2.93" height="11.98"/><rect class="cls-34" x="755.95" y="441.47" width="2.93" height="11.98"/><rect class="cls-34" x="770.5" y="441.47" width="2.93" height="11.98"/><rect class="cls-34" x="726.83" y="464.41" width="2.93" height="11.98"/><rect class="cls-34" x="741.39" y="464.41" width="2.93" height="11.98"/><rect class="cls-34" x="755.95" y="464.41" width="2.93" height="11.98"/><rect class="cls-34" x="726.83" y="490.01" width="2.93" height="11.98"/><rect class="cls-34" x="741.39" y="490.01" width="2.93" height="11.98"/><rect class="cls-34" x="755.95" y="490.01" width="2.93" height="11.98"/><rect class="cls-34" x="770.5" y="464.41" width="2.93" height="11.98"/></g><g class="cls-36"><path class="cls-37" d="M378,154.16s15.73,16.46,17.48,25c.72,3.51,1.88,10.61-13.34,15.16-2.74.82-4.55.65-4.9,2.48s-5.52,16-1.93,21.24-4.84,15.62-13.48,11.68-9-21.72-9-21.72l6.61-15.81s-8.08-5.44-4.67-14S365.05,149.12,378,154.16Z"/><path class="cls-38" d="M527.85,147.93a20.84,20.84,0,0,0,2.71,6.44,4.68,4.68,0,0,0,2.11,1.8,21.72,21.72,0,0,1-2.19,3.44,11.1,11.1,0,0,1-1.94-2.53C527.08,154.41,527,151.37,527.85,147.93Z"/><path class="cls-38" d="M551.23,127.35l-7.36,17c-4,6.11-8.24,12.49-11.41,17a14.2,14.2,0,0,1-2-1.69,21.72,21.72,0,0,0,2.19-3.44,4.68,4.68,0,0,1-2.11-1.8,20.84,20.84,0,0,1-2.71-6.44c.17-.71.39-1.43.63-2.16a35.68,35.68,0,0,1,4.29-9.08c1.34-2,3.53-4.33,3.32-6.87l.82-.3c5.25-7.42,9.46-15.1,12.48-18.55h.2c1,3,2.61,6.06,3.93,9.1a10.64,10.64,0,0,1,.42,1Z"/><path class="cls-39" d="M529.3,163.21a11.73,11.73,0,0,1-3-3.16c-5.16-8,1.06-20.39,8.4-30.91l.06-.86c.26,0,.53,0,.78.06l.21.07c0,.1,0,.2.05.3a3.85,3.85,0,0,1,.25,1.11c.21,2.54-2,4.83-3.32,6.87a35.68,35.68,0,0,0-4.29,9.08c-.24.73-.46,1.45-.63,2.16-.87,3.44-.77,6.48.69,9.15a11.1,11.1,0,0,0,1.94,2.53,14.2,14.2,0,0,0,2,1.69l-1.54,2.13C530.43,163.38,529.88,163.29,529.3,163.21Z"/><path class="cls-40" d="M536.91,129.52l-.82.3a3.85,3.85,0,0,0-.25-1.11c0-.1,0-.2-.05-.3l-.21-.07c-.25,0-.52-.05-.78-.06-8.15-.81-16.56-.85-24.84-2.49l-1.7-.32c.77-1.11,1.56-2.23,2.33-3.29-3.09-.16-6.35-1.27-9.41-1.25-.73,1-1.38,2-2,3-5.39-.84-10.82-1.57-16.16-2.42-2.88-.35-5.78-.83-8.75-1.06,5-6.31,8.14-12.42,10.32-15.58,9.45.08,51.12,5.45,64.78,6.06C546.37,114.42,542.16,122.1,536.91,129.52Z"/><path class="cls-39" d="M501,168a9.71,9.71,0,0,1-6-.38c1.1-1.51,2-3.16,3.07-4.67l.24.15a4.34,4.34,0,0,0,3.89-.45,10.88,10.88,0,0,0,2.77-2.55v0a21.66,21.66,0,0,0,2.25-3.59c1.77-.62,3.17-.83,4.63.62.6.55,1.45,1.53.89,2.3l0,0c-.35.48-.77,1-1.22,1.49h0C509.05,163.76,505.16,167,501,168Z"/><path class="cls-41" d="M486.39,155.25a.48.48,0,0,1,.16-.13l.11.15a6.49,6.49,0,0,1,5.53.47,8,8,0,0,1,5.18,1.53l0,.09a5.77,5.77,0,0,1,2.23.87l.24.15a6.07,6.07,0,0,1,1.45,1.22,3.34,3.34,0,0,1,.89,3l0,0a4.34,4.34,0,0,1-3.89.45l-.24-.15c-1.07,1.51-2,3.16-3.07,4.67a9.71,9.71,0,0,0,6,.38l.05.19a27.44,27.44,0,0,1-7.46,4l-.66.26a62.45,62.45,0,0,0-14-5.22c.76-1.43,1.52-3.14,2.35-4.85a30.67,30.67,0,0,1,2.33-4.07A11.65,11.65,0,0,1,486.39,155.25Z"/><path class="cls-38" d="M499.2,124c-.93,1.48-1.79,3-2.7,4.35,2.44.36,6.85,1.79,9.07,1.1l0-.11c.91-1.25,1.82-2.54,2.72-3.84l1.7.32c8.28,1.64,16.69,1.68,24.84,2.49l-.06.86c-7.34,10.52-13.56,22.94-8.4,30.91a11.73,11.73,0,0,0,3,3.16l-4.8-.62c-3.94-.52-8.6-1.14-12.94-1.7.45-.53.87-1,1.22-1.49l0,0c.56-.77-.29-1.75-.89-2.3-1.46-1.45-2.86-1.24-4.63-.62A21.66,21.66,0,0,1,505,160v0c-1.36-.18-2.63-.34-3.69-.46a6.07,6.07,0,0,0-1.45-1.22l-.24-.15a5.77,5.77,0,0,0-2.23-.87l0-.09a8,8,0,0,0-5.18-1.53,6.49,6.49,0,0,0-5.53-.47l-.11-.15a.48.48,0,0,0-.16.13h0c-1.07,0-3-.51-4.36-.69a19.5,19.5,0,0,1,1.72-2.47h0c.41-1.47-4.53-2.62-5.25.53l0,0a10.16,10.16,0,0,0-.94,1.12c-3.58-.43-7.82-2-11.43-3.19-10.41-6.23-2.89-19.17,5.66-30.08v-.11c.84,0,1.67.07,2.49.13,3,.23,5.87.71,8.75,1.06C488.38,122.4,493.81,123.13,499.2,124Z"/><path class="cls-39" d="M505.57,129.42c-2.22.69-6.63-.74-9.07-1.1.91-1.4,1.77-2.87,2.7-4.35.6-1,1.25-2,2-3,3.06,0,6.32,1.09,9.41,1.25-.77,1.06-1.56,2.18-2.33,3.29-.9,1.3-1.81,2.59-2.72,3.84Z"/><path class="cls-39" d="M478.49,152.6c.72-3.15,5.66-2,5.25-.53h0a19.5,19.5,0,0,0-1.72,2.47c-.88,1.6-1.19,3.31,1.58,3.73a30.67,30.67,0,0,0-2.33,4.07c-5.1-1.25-6.46-4.77-3.69-8.61a10.16,10.16,0,0,1,.94-1.12Z"/><path class="cls-42" d="M426.32,220.82s11.95,3.87,17.28-1.78,34.51-45.72,35.44-52.27c0,0,14.68,1.72,16.08,4.79s-27.39,73.2-34.41,72.84-31.41,2.71-43.46.46Z"/><path class="cls-43" d="M311.18,212.93s22.89-16.51,35-9.1c4.88,3,6.61,4.15,6.61,4.15s2.09,15.09,14.58,13.81c5.85-.6,7.94-3.77,7.94-3.77s46.29.87,51.05,2.8c0,0-5.89,31.49-5.77,35.24,0,0-43.15-1.73-49.74-.52,0,0-11.26,26-12.89,49.29Z"/><polygon class="cls-44" points="370.81 255.54 379.16 237.49 380.97 255.11 370.81 255.54"/><path class="cls-45" d="M563.49,334.81l34.91,7.69s5.79,9.34-11.42,24.81l-29.89-3.37Z"/><path class="cls-46" d="M368.66,326.31s57.27-23.26,69.94-25.37,25.41-1,57.8,11,67.09,22.9,67.09,22.9,0,28.74-5.45,43.54c0,0-90-23.5-101.38-29.85,0,0-58.92,30.44-61.55,30.7Z"/><path class="cls-47" d="M587,367.31s15.1-12.57,11.42-24.81c0,0,18.1-8.71,26-15.91,4.92-4.47,7.62-6.89,18-.17,0,0-10.74,23.42-18.63,27.7-3.06,1.66-10.53,9.95-8.28,13.48,0,0-5.21,9.4-9.75,12.28C605.74,379.88,598.43,379.29,587,367.31Z"/><path class="cls-48" d="M604.1,339.6s3.48,6,2.72,9"/><path class="cls-48" d="M608.47,337.23s3,4.73,2.51,7.47"/><path class="cls-48" d="M613.41,334.37a15.89,15.89,0,0,1,2.22,6"/><path class="cls-48" d="M617.8,331.59a17.32,17.32,0,0,1,2,5.22"/><path class="cls-49" d="M358.22,167.16c9.6,8.94,14.64,26.77,6.6,30.9-7.16,3.68-11-7.85-21.35-15.07-13.6-9.44-15.67-19.89-10-24.12C338.25,155.29,348.62,158.21,358.22,167.16Z"/><path class="cls-49" d="M367.63,165.28a.36.36,0,0,1-.42-.52,15.3,15.3,0,0,1,12-8.13l18.91-2.43a.38.38,0,0,1,.41.32.36.36,0,0,1-.31.41l-18.93,2.42a14.6,14.6,0,0,0-11.47,7.75A.33.33,0,0,1,367.63,165.28Z"/><path class="cls-49" d="M399.66,164.76c-2,.57-4.9-2.87-6.73-6.58a19.07,19.07,0,0,1-1.9-5.92c-.22-1.87.15-3.13,1-3.57,2-1,5.08,2.61,7,6.48h0a19.12,19.12,0,0,1,1.9,5.93c.22,1.86-.15,3.12-1,3.56ZM392.5,149.3l-.12,0c-.57.27-.8,1.33-.63,2.82a18.27,18.27,0,0,0,1.84,5.69c2.12,4.32,4.87,6.7,6,6.15.57-.28.8-1.34.63-2.83a18.54,18.54,0,0,0-1.84-5.69h0C396.34,151.32,393.7,149,392.5,149.3Z"/><ellipse class="cls-49" cx="358.72" cy="141.71" rx="29.15" ry="12.97" transform="translate(30.13 343.67) rotate(-53.13)"/><path class="cls-50" d="M387.43,193.15l-2.6,1.28h0a20.88,20.88,0,0,1-27.89-9.34L343.21,157.8,382,138.69l14.17,28.75A19.2,19.2,0,0,1,387.43,193.15Z"/><path class="cls-49" d="M373.37,161.4a10.38,10.38,0,0,1,9-9,1.27,1.27,0,0,1,1.36,1.17,1.32,1.32,0,0,1-.32.94c-1.74,2.15-4,3.81-5.91,5.73-.72.7-1.43,1.48-2.16,2.11a1.2,1.2,0,0,1-2-1Z"/><path class="cls-49" d="M364.94,175.73a3.7,3.7,0,0,0,2.15-5.37c-2.92-5.11-6.74-9.18-3.69-13.81,4.48-6.81,15.76-7.83,20.53-9.93s-16.41-11.13-16.41-11.13l-19.18,11-8.61,14.58L350.94,180Z"/><ellipse class="cls-49" cx="382.62" cy="134.87" rx="19.17" ry="11.37" transform="translate(-20.2 183.06) rotate(-26.24)"/><path class="cls-51" d="M386.25,157.62c.25.09,5,.9,8.56,1.5a2.47,2.47,0,0,1,1.56,3.92l-3.8,5.1Z"/><path class="cls-49" d="M390.42,170.89c-2.05.59-5.15-2.08-7.24-6.32a16,16,0,0,1-1.74-6c-.09-1.91.42-3.24,1.44-3.74s2.38-.1,3.84,1.13a16,16,0,0,1,3.73,5.06c2.21,4.47,2.34,8.76.3,9.77Zm-7-15.52a1.31,1.31,0,0,0-.21.08c-.73.36-1.11,1.47-1,3.05a15.12,15.12,0,0,0,1.66,5.75c2,4,5,6.66,6.6,5.86s1.32-4.83-.63-8.8a15.33,15.33,0,0,0-3.55-4.82C385.15,155.56,384.14,155.16,383.41,155.37Z"/><path class="cls-49" d="M363.22,184c5.45,12.21.51,14.56.51,14.56-2,1.07-5.22-.61-7-2.6a7.94,7.94,0,0,1-1.8-6.44Z"/><path class="cls-49" d="M387.52,161.39c.65,1.31.48,2.72-.37,3.14s-2.08-.3-2.72-1.62-.48-2.72.37-3.14S386.87,160.07,387.52,161.39Z"/><path class="cls-49" d="M353.49,176.23a.36.36,0,0,1-.27,0,.38.38,0,0,1-.16-.5,15.34,15.34,0,0,1,12-8.13L384,165.16a.36.36,0,0,1,.41.31.36.36,0,0,1-.31.41l-18.93,2.43a14.55,14.55,0,0,0-11.46,7.74A.35.35,0,0,1,353.49,176.23Z"/><path class="cls-49" d="M390.19,161.54a.36.36,0,0,1-.31-.64l3.47-2.57a.37.37,0,0,1,.44.59l-3.48,2.56A.34.34,0,0,1,390.19,161.54Z"/><path class="cls-52" d="M360.06,172.27c5.61.37,9.91,4.32,9.62,8.83S364.59,189,359,188.59s-9.91-4.32-9.62-8.83S354.46,171.9,360.06,172.27Z"/><path class="cls-53" d="M390.79,174.29a4.27,4.27,0,0,1-4.39-1.07.36.36,0,0,1,0-.51.37.37,0,0,1,.52,0,3.65,3.65,0,0,0,4,.72,5.6,5.6,0,0,0,2.91-2.37.37.37,0,0,1,.49-.15.36.36,0,0,1,.16.49,6.33,6.33,0,0,1-3.3,2.71Z"/><path class="cls-54" d="M367.11,132.23a.4.4,0,0,1-.36-.09.36.36,0,0,1,0-.51c.11-.12,11.32-11.45,24.75-10.3a.36.36,0,0,1,.33.39.37.37,0,0,1-.39.34c-13.09-1.12-24.06,10-24.17,10.07A.39.39,0,0,1,367.11,132.23Z"/><path class="cls-54" d="M345.49,158.12a.38.38,0,0,1-.21,0,15.85,15.85,0,0,0-13.27,2.1.36.36,0,0,1-.44-.58,16.57,16.57,0,0,1,13.92-2.22.36.36,0,0,1,.24.46A.34.34,0,0,1,345.49,158.12Z"/><g class="cls-55"><path class="cls-32" d="M386.62,167.52h-.08a.37.37,0,0,1-.38-.35l-.41-10.62a.36.36,0,0,1,.34-.38.36.36,0,0,1,.38.35l.42,10.62A.39.39,0,0,1,386.62,167.52Z"/><path class="cls-32" d="M389.14,166.28h-.06a.37.37,0,0,1-.4-.33l-.68-6.51a.37.37,0,0,1,.73-.07l.67,6.51A.36.36,0,0,1,389.14,166.28Z"/><path class="cls-32" d="M395,158.73H395a.36.36,0,0,1-.38-.34l-.57-8.49a.37.37,0,0,1,.34-.39.37.37,0,0,1,.39.34l.56,8.49A.37.37,0,0,1,395,158.73Z"/><path class="cls-32" d="M398.4,161.71h-.08a.34.34,0,0,1-.38-.33l-.44-6.63a.37.37,0,0,1,.34-.39.36.36,0,0,1,.38.34l.44,6.63A.37.37,0,0,1,398.4,161.71Z"/></g><path class="cls-53" d="M353.91,183.6a.36.36,0,0,1-.39-.14s-2.41-3.34,0-6.23c2.84-3.38,8.06-1.67,8.28-1.6a.36.36,0,0,1,.23.46.36.36,0,0,1-.46.23s-5-1.63-7.5,1.38c-2.06,2.45,0,5.3,0,5.33a.36.36,0,0,1-.08.51A.39.39,0,0,1,353.91,183.6Z"/></g></svg>