<svg id="Layer_2" data-name="Layer 2" xmlns="http://www.w3.org/2000/svg" xmlns:xlink="http://www.w3.org/1999/xlink" viewBox="0 0 1822.55 406.45"><defs><style>.cls-1{fill:url(#linear-gradient);}.cls-2{fill:url(#linear-gradient-2);}.cls-3{fill:url(#linear-gradient-3);}.cls-4{fill:url(#linear-gradient-4);}.cls-5{fill:url(#linear-gradient-5);}.cls-6{fill:url(#linear-gradient-6);}.cls-7{fill:url(#linear-gradient-7);}.cls-8{fill:url(#linear-gradient-8);}.cls-9{fill:url(#linear-gradient-9);}</style><linearGradient id="linear-gradient" x1="151.48" y1="547.06" x2="1657.25" y2="1027.82" gradientUnits="userSpaceOnUse"><stop offset="0" stop-color="#ffd399"/><stop offset="0.33" stop-color="#f59e8a"/><stop offset="0.66" stop-color="#f48ba4"/><stop offset="1" stop-color="#7ea6b2"/></linearGradient><linearGradient id="linear-gradient-2" x1="164.18" y1="507.3" x2="1669.94" y2="988.06" xlink:href="#linear-gradient"/><linearGradient id="linear-gradient-3" x1="278.58" y1="148.99" x2="1784.34" y2="629.74" xlink:href="#linear-gradient"/><linearGradient id="linear-gradient-4" x1="180.46" y1="456.3" x2="1686.22" y2="937.06" xlink:href="#linear-gradient"/><linearGradient id="linear-gradient-5" x1="165.29" y1="-33.22" x2="1671.05" y2="447.54" xlink:href="#linear-gradient"/><linearGradient id="linear-gradient-6" x1="213.8" y1="351.86" x2="1719.57" y2="832.62" xlink:href="#linear-gradient"/><linearGradient id="linear-gradient-7" x1="207.53" y1="371.51" x2="1713.3" y2="852.26" xlink:href="#linear-gradient"/><linearGradient id="linear-gradient-8" x1="249.59" y1="239.77" x2="1755.36" y2="720.52" xlink:href="#linear-gradient"/><linearGradient id="linear-gradient-9" x1="283.04" y1="135" x2="1788.81" y2="615.75" xlink:href="#linear-gradient"/></defs><path class="cls-1" d="M349.38,645.25V532s-2.23-63.33-64.23-63.33-94.54,35.23-94.54,35.23V343.32h-8.29a51.47,51.47,0,0,0-21.64,4.76L68.5,390.71a2,2,0,0,0,.11,3.63c10.85,4.16,36.8,17.89,36.8,54.22v215s-5.49,57.1-41.47,57.1v14.71h161v-14.8a42.37,42.37,0,0,1-39.7-42.28V545.36a42.38,42.38,0,0,1,84.75,0v132.9a42.36,42.36,0,0,1-42.37,42.37v14.71h161.9V720.63S349.38,712.61,349.38,645.25Z" transform="translate(-63.94 -336.77)"/><path class="cls-2" d="M401.11,735.35V720.63s41-10.26,41-58.87V581c0-25.63-13.76-49.62-36.45-61.54q-1.54-.81-3.15-1.56a.72.72,0,0,1,0-1.31c59.27-27.37,84.2-39.06,94.67-44a38.19,38.19,0,0,1,16.38-3.69h7.5V664s1.93,56.64,40.29,56.64v14.71Z" transform="translate(-63.94 -336.77)"/><path class="cls-3" d="M1441.18,735.35V720.63s41-10.26,41-58.87V455.45c0-25.63-13.75-49.62-36.44-61.54-1-.54-2.08-1.06-3.16-1.56a.72.72,0,0,1,0-1.31c59.27-27.37,84.19-39.05,94.67-44a38,38,0,0,1,16.38-3.69h7.5V664s1.93,56.64,40.28,56.64v14.71Z" transform="translate(-63.94 -336.77)"/><path class="cls-4" d="M577.13,735.35V720.63s41-10.26,41-58.87V581c0-25.63-13.76-49.62-36.45-61.54l-.89-.46a1.92,1.92,0,0,1,0-3.47c57.6-26.62,82-38.06,92.36-43a38.14,38.14,0,0,1,16.37-3.69h7.5V664s1.93,56.64,40.29,56.64v14.71Z" transform="translate(-63.94 -336.77)"/><circle class="cls-5" cx="411.81" cy="45.49" r="45.49"/><path class="cls-6" d="M697.11,555.16s43.41-78.94,68.83-83.4,57.09,8.48,57.09,50-33.9,37.91-44.6,25.43-37-23.49-52.63-9.22a281.19,281.19,0,0,0-28.69,31.22Z" transform="translate(-63.94 -336.77)"/><path class="cls-7" d="M1114,695.57c-36.72,24.53-46-14.19-46-14.19V545.8s.6-74.88-99.89-74.88c-92.91,0-121.78,51.28-125.62,80.64a8.84,8.84,0,0,0,5.62,9.33c33.52,13.05,63,3.63,73.62-.72a6.72,6.72,0,0,0,4.17-6.13c.65-53.44,13.57-64.74,32.69-64.74,19.62,0,23.79,25,23.79,25v79.91c-57.08,0-148.67,12.88-148.67,64.59,0,46.39,35.68,84.45,72.55,84.45,33.41,0,73.68-23.94,80.92-28.42a1.05,1.05,0,0,1,1.55.53c2,5.58,12.75,27.89,54.9,27.89,48.16,0,65.11-21.7,74.93-31.52,8.89-8.9,8.5-19.25-.06-18A11.06,11.06,0,0,0,1114,695.57ZM982.4,692.39S922,719.14,913.72,657.3c-7.14-52.33,63-52.92,68.68-52.33Z" transform="translate(-63.94 -336.77)"/><path class="cls-8" d="M1312.29,468c-45,0-84.3,26.68-84.3,26.68V343.32h-6.44a57.65,57.65,0,0,0-23.5,5l-88.59,39.53a1.93,1.93,0,0,0,0,3.53c13,5.86,21.65,15.44,27.41,24.92a76.58,76.58,0,0,1,10.81,39.82V735.34l23.76-12a41.85,41.85,0,0,1,37.55,0c17.27,8.66,44.12,19.9,67.15,19.9,37.46,0,146.27-22.6,146.27-133.21S1357.34,468,1312.29,468Zm-37,252.65c-11.42,0-21.34-8.27-29.13-18.21a89,89,0,0,1-18.59-55V512.08a4.93,4.93,0,0,1,2.63-4.35c50.59-27.17,105.74,46.36,105.74,112.55C1335.92,687.62,1303.81,720.63,1275.27,720.63Z" transform="translate(-63.94 -336.77)"/><path class="cls-9" d="M1870.83,661.76c-11.9,11.89-37.19,51.74-110.64,32.7-54.41-15.45-54.08-88.57-54.08-88.57l180.18-1s10.7-134-125.77-134-138.86,134-138.86,134-13.09,136,138.86,136c67.74,0,112.32-62.35,122.42-77,1.76-2.55,1.65-6.87-1.27-7.9C1878.48,654.84,1876.77,655.81,1870.83,661.76Zm-110.31-173c38.63,0,49.84,32.2,53.08,51.62a46.45,46.45,0,0,1-7,33.62c-4.87,7.25-12.23,13.77-22.93,13.77h-77.6S1705.21,488.72,1760.52,488.72Z" transform="translate(-63.94 -336.77)"/></svg>