<svg id="Layer_2" data-name="Layer 2" xmlns="http://www.w3.org/2000/svg" viewBox="0 0 933.3 933.28"><defs><style>.cls-1{fill:none;stroke:#000;stroke-miterlimit:10;}.cls-2{fill:#7ea6b2;}.cls-3{fill:#f48ba4;}.cls-4{fill:#f59f89;}.cls-5{fill:#fec777;}.cls-6{fill:#fcfcfc;}</style></defs><path class="cls-1" d="M1426.15,540a467.44,467.44,0,0,1-11.72,104.31,461.28,461.28,0,0,1-19,62.56c-67.12,175-236.74,299.27-435.39,299.27-172.79,0-323.63-94-404.14-233.71q-9.65-16.75-17.93-34.36a462.74,462.74,0,0,1-42.51-159.79q-1.55-18.93-1.56-38.28c0-3.64,0-7.28.13-10.89a466.9,466.9,0,0,1,5.83-63.81C535.56,243.37,728,73.86,960,73.86c153.69,0,290,74.37,374.92,189.09l0,0a463.56,463.56,0,0,1,86.28,209.08h0A468.47,468.47,0,0,1,1426.15,540Z" transform="translate(-493.35 -73.36)"/><path class="cls-2" d="M1414.43,644.31a461.28,461.28,0,0,1-19,62.56c-67.12,175-236.74,299.27-435.39,299.27-172.79,0-323.63-94-404.14-233.71q-9.65-16.75-17.93-34.36c47.15-9,104-12,141.77-5C744.83,745,1320.9,608.19,1380.24,624.11,1392.32,627.34,1403.78,634.35,1414.43,644.31Z" transform="translate(-493.35 -73.36)"/><path class="cls-3" d="M1426.15,540a464.75,464.75,0,0,1-30.77,166.87c-50-26.16-242.37-5.93-277.11,21.58-137.51,152-562.42,44-562.42,44a463.11,463.11,0,0,1-60.44-194.15q-1.55-18.93-1.56-38.28c0-3.64,0-7.28.13-10.89,174.91-21.48,670.08-57.69,718.36-83,31.47-16.53,118.57-28.35,196.6-32a460,460,0,0,1,12.28,57.94h0A468.47,468.47,0,0,1,1426.15,540Z" transform="translate(-493.35 -73.36)"/><path class="cls-4" d="M1421.22,472.06c-209.4,11.53-343.49,178.11-444.81,186.79-174.72,13.86-457.59-73.23-481-80.57q-1.55-18.93-1.56-38.28a467.91,467.91,0,0,1,6-74.7C596.4,322.4,1334.91,263,1334.91,263l0,0A463.61,463.61,0,0,1,1421.22,472.06Z" transform="translate(-493.35 -73.36)"/><path class="cls-5" d="M1334.91,263v0S1166,420,993.78,388.18c-321.33-55-494,77.12-494,77.12C535.56,243.37,728,73.86,960,73.86,1113.68,73.86,1250,148.23,1334.91,263Z" transform="translate(-493.35 -73.36)"/><path class="cls-6" d="M1147.21,681.67V508.76s-3.41-96.66-98-96.66-144.31,53.77-144.31,53.77v-245H892.21a78.63,78.63,0,0,0-33,7.27L718.5,293.15a3,3,0,0,0,.16,5.55c16.56,6.34,56.17,27.3,56.17,82.76V709.58s-8.38,87.15-63.3,87.15v22.45H957.27v-22.6a64.65,64.65,0,0,1-60.59-64.53V529.2a64.68,64.68,0,0,1,129.35,0V732.05a64.67,64.67,0,0,1-64.67,64.68v22.45h247.11V796.73S1147.21,784.48,1147.21,681.67Z" transform="translate(-493.35 -73.36)"/></svg>