<svg id="Layer_15" data-name="Layer 15" xmlns="http://www.w3.org/2000/svg" viewBox="0 0 411.42 123.98"><defs><style>.cls-1{fill:#f90;}.cls-2{fill:#221f1f;}</style></defs><path id="path8" class="cls-1" d="M349.53,335c-23.91,17.62-58.57,27-88.4,27a159.92,159.92,0,0,1-108-41.21c-2.24-2-.24-4.78,2.45-3.2,30.75,17.89,68.77,28.65,108,28.65a214.87,214.87,0,0,0,82.41-16.85c4.05-1.72,7.44,2.65,3.48,5.59" transform="translate(-94.29 -238.01)"/><path id="path10" class="cls-1" d="M359.47,323.6c-3.05-3.91-20.2-1.85-27.91-.94-2.34.29-2.7-1.75-.59-3.22,13.67-9.62,36.09-6.84,38.71-3.62s-.69,25.72-13.53,36.45c-2,1.65-3.85.77-3-1.42,2.88-7.2,9.35-23.33,6.29-27.25" transform="translate(-94.29 -238.01)"/><path id="path12" class="cls-2" d="M332.1,251.55V242.2a2.31,2.31,0,0,1,2.37-2.37h41.85a2.34,2.34,0,0,1,2.42,2.37v8c0,1.35-1.15,3.1-3.15,5.88L353.9,287c8.06-.19,16.56,1,23.87,5.12A4.26,4.26,0,0,1,380,295.8v10c0,1.36-1.5,3-3.08,2.13a48.22,48.22,0,0,0-44.22.07c-1.45.79-3-.79-3-2.15v-9.47a11.31,11.31,0,0,1,1.54-6.43l25.13-36H334.52a2.32,2.32,0,0,1-2.42-2.34" transform="translate(-94.29 -238.01)"/><path id="path14" class="cls-2" d="M179.43,309.88H166.69a2.41,2.41,0,0,1-2.27-2.17V242.36a2.39,2.39,0,0,1,2.45-2.35h11.88a2.41,2.41,0,0,1,2.31,2.19v8.54h.23c3.1-8.25,8.92-12.11,16.76-12.11s12.95,3.86,16.53,12.11c3.08-8.25,10.09-12.11,17.59-12.11a18.12,18.12,0,0,1,14.74,7.15c4,5.5,3.2,13.49,3.2,20.49v41.24a2.41,2.41,0,0,1-2.46,2.37H234.93a2.42,2.42,0,0,1-2.29-2.37V272.88c0-2.76.25-9.64-.36-12.25-.95-4.39-3.8-5.63-7.49-5.63a8.46,8.46,0,0,0-7.61,5.36c-1.31,3.29-1.18,8.81-1.18,12.52v34.63a2.41,2.41,0,0,1-2.46,2.37H200.83a2.41,2.41,0,0,1-2.29-2.37l0-34.63c0-7.29,1.2-18-7.85-18s-8.79,10.46-8.79,18v34.63a2.41,2.41,0,0,1-2.45,2.37" transform="translate(-94.29 -238.01)"/><path id="path16" class="cls-2" d="M414.77,238.63c18.89,0,29.12,16.23,29.12,36.86,0,19.93-11.3,35.75-29.12,35.75-18.55,0-28.65-16.23-28.65-36.45s10.22-36.16,28.65-36.16m.11,13.35c-9.39,0-10,12.78-10,20.75s-.12,25,9.87,25S425.1,284,425.1,275.63c0-5.51-.23-12.1-1.89-17.33-1.44-4.55-4.29-6.32-8.33-6.32" transform="translate(-94.29 -238.01)"/><path id="path18" class="cls-2" d="M468.39,309.88H455.71a2.42,2.42,0,0,1-2.29-2.37l0-65.37a2.41,2.41,0,0,1,2.45-2.13h11.81a2.44,2.44,0,0,1,2.27,1.83v10h.23c3.57-8.93,8.56-13.2,17.36-13.2,5.71,0,11.28,2.06,14.86,7.71,3.33,5.23,3.33,14,3.33,20.34v41.14a2.45,2.45,0,0,1-2.45,2.06H490.49a2.42,2.42,0,0,1-2.26-2.06v-35.5c0-7.14.83-17.6-8-17.6A8.32,8.32,0,0,0,472.9,260c-1.79,4-2,8-2,12.37v35.19a2.45,2.45,0,0,1-2.49,2.37" transform="translate(-94.29 -238.01)"/><g id="use28"><path id="path30" class="cls-2" d="M298.74,278.66V275.9c-9.21,0-18.93,2-18.93,12.83,0,5.49,2.85,9.22,7.73,9.22,3.59,0,6.79-2.2,8.82-5.79,2.5-4.4,2.38-8.54,2.38-13.5m12.84,31a2.67,2.67,0,0,1-3,.3c-4.23-3.51-5-5.14-7.31-8.49-7,7.13-11.92,9.26-21,9.26-10.71,0-19-6.61-19-19.84,0-10.33,5.6-17.37,13.57-20.81,6.92-3.05,16.57-3.58,23.95-4.42v-1.65c0-3,.23-6.61-1.54-9.23-1.56-2.34-4.53-3.31-7.15-3.31-4.85,0-9.19,2.49-10.24,7.65a2.69,2.69,0,0,1-2.21,2.33l-12.35-1.33a2.25,2.25,0,0,1-1.9-2.67c2.85-15,16.37-19.48,28.47-19.48,6.2,0,14.3,1.65,19.19,6.34,6.19,5.78,5.6,13.5,5.6,21.9v19.84c0,6,2.47,8.58,4.8,11.81.82,1.14,1,2.52,0,3.38-2.59,2.17-7.21,6.2-9.76,8.45l0,0" transform="translate(-94.29 -238.01)"/></g><path id="path30-2" data-name="path30" class="cls-2" d="M131.81,278.66V275.9c-9.21,0-18.93,2-18.93,12.83,0,5.49,2.84,9.22,7.73,9.22,3.59,0,6.79-2.2,8.82-5.79,2.5-4.4,2.38-8.54,2.38-13.5m12.84,31a2.67,2.67,0,0,1-3,.3c-4.23-3.51-5-5.14-7.31-8.49-7,7.13-11.92,9.26-21,9.26-10.71,0-19-6.61-19-19.84,0-10.33,5.6-17.37,13.57-20.81,6.92-3.05,16.57-3.58,24-4.42v-1.65c0-3,.23-6.61-1.54-9.23-1.56-2.34-4.53-3.31-7.15-3.31-4.85,0-9.19,2.49-10.24,7.65a2.69,2.69,0,0,1-2.21,2.33l-12.35-1.33a2.25,2.25,0,0,1-1.9-2.67c2.85-15,16.37-19.48,28.47-19.48,6.2,0,14.3,1.65,19.18,6.34,6.2,5.78,5.61,13.5,5.61,21.9v19.84c0,6,2.47,8.58,4.8,11.81.82,1.14,1,2.52,0,3.38-2.59,2.17-7.21,6.2-9.76,8.45l0,0" transform="translate(-94.29 -238.01)"/></svg>