<svg id="Layer_12" data-name="Layer 12" xmlns="http://www.w3.org/2000/svg" viewBox="0 0 100.69 123.67"><path id="aapple" d="M347.13,278.66c-.72.56-13.38,7.69-13.38,23.56,0,18.36,16.11,24.85,16.6,25a64.84,64.84,0,0,1-8.5,17.55C336.56,352.4,331,360,322.62,360s-10.58-4.89-20.29-4.89c-9.46,0-12.82,5.05-20.52,5.05s-13.06-7.05-19.23-15.71c-7.15-10.16-12.93-26-12.93-40.95,0-24.05,15.64-36.8,31-36.8,8.18,0,15,5.37,20.13,5.37,4.88,0,12.5-5.69,21.8-5.69,3.53,0,16.19.32,24.53,12.27Zm-28.94-22.45A27.66,27.66,0,0,0,324.76,239a11.79,11.79,0,0,0-.24-2.48c-6.26.23-13.7,4.16-18.19,9.37-3.53,4-6.82,10.34-6.82,16.76a10.79,10.79,0,0,0,.24,2.24,10.07,10.07,0,0,0,1.68.16C307,265,314.11,261.27,318.19,256.21Z" transform="translate(-249.65 -236.5)"/></svg>