<svg id="Layer_16" data-name="Layer 16" xmlns="http://www.w3.org/2000/svg" xmlns:xlink="http://www.w3.org/1999/xlink" viewBox="0 0 582.64 119.36"><defs><style>.cls-1{fill:none;}.cls-2{clip-path:url(#clip-path);}.cls-3{fill:#46ad50;}</style><clipPath id="clip-path" transform="translate(-8.42 -236.46)"><rect class="cls-1" x="-102.62" y="113.83" width="805.23" height="364.33"/></clipPath></defs><g id="layer1"><g id="g268"><g class="cls-2"><g id="g270"><g id="g276"><path id="path278" class="cls-3" d="M471.85,353.37V274H490v10.1c4.56-8.15,14.51-12.39,23.48-12.39,10.44,0,19.57,4.73,23.81,14,6.2-10.44,15.49-14,25.76-14,14.35,0,28,9.13,28,30.17v51.53H572.8V304.94c0-9.3-4.73-16.31-15.33-16.31-10,0-16.47,7.83-16.47,17.61v47.13H522.41V304.94c0-9.13-4.57-16.31-15.33-16.31-10.11,0-16.47,7.5-16.47,17.61v47.13Zm-37.18-48.43c-.33-9.3-6.52-17.61-19.57-17.61a19.05,19.05,0,0,0-19.4,17.61Zm18.1,25.76c-4.24,13.86-16.8,25.12-35.88,25.12-21.52,0-40.6-15.66-40.6-42.56,0-25.12,18.59-41.75,38.65-41.75,24.46,0,38.81,16.14,38.81,41.26a28.19,28.19,0,0,1-.49,6H395.2a21.27,21.27,0,0,0,21.69,20.71c11.42,0,17.29-6,19.9-13.86ZM345.3,304.94c-.33-9.3-6.52-17.61-19.57-17.61a19.07,19.07,0,0,0-19.41,17.61Zm18.1,25.76c-4.24,13.86-16.8,25.12-35.88,25.12-21.52,0-40.6-15.66-40.6-42.56,0-25.12,18.59-41.75,38.65-41.75,24.46,0,38.81,16.14,38.81,41.26a28.19,28.19,0,0,1-.49,6H305.83a21.26,21.26,0,0,0,21.69,20.71c11.42,0,17.29-6,19.9-13.86Zm-85.29-38a40.79,40.79,0,0,0-6.2-.49c-14.67,0-21.36,8.48-21.36,23.32v37.83H231.63V274h18.43v12.71c3.75-8.64,12.56-13.69,23-13.69a26.51,26.51,0,0,1,5.06.49ZM168.19,339.18c12.4,0,21-10.59,21-25.92s-8.48-25.12-21-25.12c-12.72,0-21.52,9.79-21.52,25.12,0,15.16,8.31,25.92,21.52,25.92m-2.12,16.31c-23.32,0-38.32-18.43-38.32-42.23,0-23,15.17-41.59,38-41.59,14,0,21.2,7.34,23.32,12.72V274h18.42v64.9c0,6.52.65,12.88.82,14.51h-18.1a70.45,70.45,0,0,1-.82-11.41c-3.59,7.66-11.9,13.53-23.32,13.53" transform="translate(-8.42 -236.46)"/></g><g id="g280"><path id="path282" class="cls-3" d="M37.53,241.43a12.4,12.4,0,0,1,12.4,12.4,12.32,12.32,0,1,1-12.4-12.4" transform="translate(-8.42 -236.46)"/></g><g id="g284"><path id="path286" class="cls-3" d="M66.21,337.05C48.88,337.05,32.44,326,28.68,305H8.42c4.11,32,29.31,50.84,57.79,50.84,29.51,0,47.12-18.76,52.34-38.33l-17.94-5.87c-3.91,13.05-15,25.44-34.4,25.44" transform="translate(-8.42 -236.46)"/></g><g id="g288"><path id="path290" class="cls-3" d="M114.05,262.22c-6.42-12.46-18.25-22.46-35.39-25.76l-4.31,18a30.73,30.73,0,0,1,23.4,18.8Z" transform="translate(-8.42 -236.46)"/></g></g></g></g></g></svg>