<svg id="Layer_6" data-name="Layer 6" xmlns="http://www.w3.org/2000/svg" viewBox="0 0 600 108.06"><defs><style>.cls-1{fill:#00ccbc;}</style></defs><path class="cls-1" d="M58,352.47H77.44l-3.31-15.14v-90H55.51v41.07a29.18,29.18,0,0,0-22.45-10.27C14.44,278.16,0,293.65,0,316.1,0,338.72,14.44,354,33.06,354a29,29,0,0,0,22.8-10.79L58,352.47Zm368.21-54.12a17.33,17.33,0,0,1,10.44,3.3l8.88-19.83a25.33,25.33,0,0,0-13.58-3.66,22.46,22.46,0,0,0-19.83,11l-1.92-9.22H391l3.13,14.27v58.47h18.62V306.18c2.44-4.87,7.14-7.83,13.4-7.83Zm54.47,36.19c-10.79,0-18.8-7.13-18.8-18.27,0-11.31,8-18.27,18.8-18.27,11,0,18.79,7,18.79,18.27,0,11-7.83,18.27-18.79,18.27ZM18.1,316.1c0-11.31,8-18.28,18.79-18.28,11,0,18.79,7,18.79,18.28,0,11.13-7.83,18.27-18.79,18.27C26.1,334.54,18.1,327.23,18.1,316.1Zm545.18,18.44c-10.79,0-18.79-7.13-18.79-18.27,0-11.31,8-18.27,18.79-18.27,11,0,18.8,7,18.8,18.27C581.9,327.23,574.07,334.54,563.28,334.54Zm-440.6-37.76c9.57,0,15.84,4.53,17.92,12.88H104.76c1.91-8.53,8.35-12.88,17.92-12.88Zm222.56,0c9.57,0,15.84,4.53,17.93,12.88H327.32c2.26-8.53,8.53-12.88,17.92-12.88Zm-90.83,55.69h29.93l19.49-72.92H283.47l-14.1,59.17-14.27-59h-20l19.32,72.74Zm-47.86,0h18.62V279.55H206.55Zm-81.09,1.39a54.35,54.35,0,0,0,29.06-8.36l-7.13-16a45.48,45.48,0,0,1-21.75,5.56c-9.75,0-16.53-3.82-19.67-11h52.56a42.94,42.94,0,0,0,.87-8.53C159.4,293,143.74,278,123,278,102,278,86.66,293.3,86.66,315.92c-.18,23.15,15.14,37.94,38.8,37.94ZM600,316.1c0-22.63-15.66-37.94-36.72-37.94-21.23,0-36.71,15.49-36.71,37.94S542.23,354,563.28,354,600,338.72,600,316.1ZM347.85,354a52.89,52.89,0,0,0,29.06-8.35l-7.13-16A45.49,45.49,0,0,1,348,335.24c-9.75,0-16.53-3.83-19.67-11h52.56a42.92,42.92,0,0,0,.87-8.52c0-22.62-15.66-37.59-36.37-37.59-21.06,0-36.37,15.31-36.37,37.94,0,23.31,15.14,37.93,38.8,37.93Zm132.78,0c21.23,0,36.71-15.49,36.71-37.93s-15.66-37.94-36.71-37.94c-21.23,0-36.72,15.49-36.72,37.94S459.4,354,480.63,354Zm-309.4-1.56h18.62V247.36H171.23V352.47ZM216,269.63a11.83,11.83,0,1,0-11.83-11.83A11.7,11.7,0,0,0,216,269.63Z" transform="translate(0 -245.97)"/></svg>