<svg id="Layer_22" data-name="Layer 22" xmlns="http://www.w3.org/2000/svg" xmlns:xlink="http://www.w3.org/1999/xlink" viewBox="0 0 599.72 123.67"><defs><style>.cls-1{fill:none;}.cls-2{clip-path:url(#clip-path);}.cls-3{fill:#5865f2;}</style><clipPath id="clip-path" transform="translate(0 -238.16)"><rect class="cls-1" y="238.16" width="600" height="123.67"/></clipPath></defs><g class="cls-2"><g class="cls-2"><path class="cls-3" d="M127,248.52a117,117,0,0,0-30.93-10.36c-1.33,2.57-2.89,6-4,8.77a106.5,106.5,0,0,0-34.27,0c-1.07-2.75-2.67-6.2-4-8.77a116.26,116.26,0,0,0-30.95,10.39C3.29,280.07-2,310.81.64,341.11a120.88,120.88,0,0,0,37.92,20.71,101.62,101.62,0,0,0,8.13-14.25,77.91,77.91,0,0,1-12.79-6.64C35,340.08,36,339.2,37,338.29c24.67,12.29,51.47,12.29,75.84,0,1,.91,2.07,1.79,3.13,2.64a77.42,77.42,0,0,1-12.81,6.65,100.83,100.83,0,0,0,8.12,14.26,120.87,120.87,0,0,0,37.95-20.73C152.37,306,143.94,275.52,127,248.52Zm-76.93,74c-7.41,0-13.48-7.36-13.48-16.33s5.94-16.36,13.48-16.36,13.6,7.37,13.47,16.36S57.58,322.47,50.05,322.47Zm49.8,0c-7.41,0-13.48-7.36-13.48-16.33s5.95-16.36,13.48-16.36,13.6,7.37,13.48,16.36S107.38,322.47,99.85,322.47Z" transform="translate(0 -238.16)"/><path class="cls-3" d="M201.43,269.71h32.19q11.63,0,19.69,4a27.16,27.16,0,0,1,12.05,11,32.13,32.13,0,0,1,4,16.13,31.64,31.64,0,0,1-4.17,16.12,29,29,0,0,1-12.71,11.45q-8.53,4.22-21.17,4.22H201.43ZM231,316.61q7.83,0,12-4.26t4.21-11.64q0-6.84-3.75-10.91c-2.49-2.72-6.28-4.1-11.34-4.1H222.07v30.91Z" transform="translate(0 -238.16)"/><path class="cls-3" d="M317.55,332.51A41.52,41.52,0,0,1,305.5,327V312.12a32.31,32.31,0,0,0,10.86,5.62,42.91,42.91,0,0,0,13.17,2.2,9.48,9.48,0,0,0,4.49-.85,2.44,2.44,0,0,0,1.52-2,3.22,3.22,0,0,0-.82-2.25,6.91,6.91,0,0,0-3.22-1.52l-9.91-2.43q-8.5-2.16-12.08-6a15.24,15.24,0,0,1-.45-19.09,19.94,19.94,0,0,1,8.91-6,39.36,39.36,0,0,1,13.54-2.12,47,47,0,0,1,12.71,1.62,33.48,33.48,0,0,1,9.57,4.13v14.1a33.88,33.88,0,0,0-9-4,37,37,0,0,0-10.45-1.48c-5.17,0-7.75,1-7.75,2.88a2.16,2.16,0,0,0,1.2,2,18.19,18.19,0,0,0,4.41,1.4l8.25,1.62c5.39,1,9.41,2.8,12.05,5.34s4,6.3,4,11.28a15.27,15.27,0,0,1-6.55,13q-6.57,4.81-18.62,4.81A50.82,50.82,0,0,1,317.55,332.51Z" transform="translate(0 -238.16)"/><path class="cls-3" d="M376,330.63a25.56,25.56,0,0,1-10.68-10.25,29.6,29.6,0,0,1-3.58-14.55,28.19,28.19,0,0,1,3.71-14.47,25.74,25.74,0,0,1,10.9-10,37.6,37.6,0,0,1,17.16-3.63q12.38,0,20.55,5.66v16.44a25.11,25.11,0,0,0-6.72-3.5A24.57,24.57,0,0,0,399.1,295q-7.67,0-12,3.06a9.36,9.36,0,0,0-4.34,8,9.49,9.49,0,0,0,4.21,8c2.81,2.07,6.87,3.11,12.21,3.11a26.49,26.49,0,0,0,8.14-1.3,29.15,29.15,0,0,0,6.89-3.2V328.5a37.64,37.64,0,0,1-21,5.92Q383.08,334.39,376,330.63Z" transform="translate(0 -238.16)"/><path class="cls-3" d="M434.63,330.63a26.38,26.38,0,0,1-10.9-10.34A29,29,0,0,1,420,305.65a27.73,27.73,0,0,1,3.76-14.43,25.87,25.87,0,0,1,10.86-9.93,41.67,41.67,0,0,1,33.84,0,25.7,25.7,0,0,1,10.81,9.88A27.88,27.88,0,0,1,483,305.64a29.13,29.13,0,0,1-3.71,14.64,26.13,26.13,0,0,1-10.86,10.33,39.65,39.65,0,0,1-33.75,0Zm25.07-15.94a12.31,12.31,0,0,0,3-8.67,11.91,11.91,0,0,0-3-8.57,10.72,10.72,0,0,0-8.2-3.2,10.85,10.85,0,0,0-8.3,3.2,12,12,0,0,0-3,8.57,12.3,12.3,0,0,0,3,8.67,12,12,0,0,0,16.5,0Z" transform="translate(0 -238.16)"/><path class="cls-3" d="M532.54,281v19.41a13.71,13.71,0,0,0-8.17-2.25q-6.6,0-10.15,4.35c-2.37,2.9-3.55,7.42-3.55,13.53V332.6H490.45V280h19.81v16.72c1.09-6.11,2.88-10.62,5.33-13.53a11.79,11.79,0,0,1,9.44-4.35A13,13,0,0,1,532.54,281Z" transform="translate(0 -238.16)"/><path class="cls-3" d="M599.72,267.92V332.6H579.5V320.83A20.59,20.59,0,0,1,571.71,331a23.1,23.1,0,0,1-12.93,3.45,20.12,20.12,0,0,1-12-3.63,23.51,23.51,0,0,1-7.89-10,35.58,35.58,0,0,1-2.77-14.34,34.1,34.1,0,0,1,2.94-14.83,24,24,0,0,1,8.5-10.24,22,22,0,0,1,12.51-3.68q14.45,0,19.39,13.66V267.92Zm-23.24,46.41a11.85,11.85,0,0,0,3.09-8.49,11.34,11.34,0,0,0-3-8.17,12.15,12.15,0,0,0-16.38.05,11.49,11.49,0,0,0-3.06,8.3,11.67,11.67,0,0,0,3.06,8.36,10.63,10.63,0,0,0,8.09,3.23A10.81,10.81,0,0,0,576.48,314.33Z" transform="translate(0 -238.16)"/><path class="cls-3" d="M286.4,285.64a9.86,9.86,0,1,0-10.08-9.86A10,10,0,0,0,286.4,285.64Z" transform="translate(0 -238.16)"/><path class="cls-3" d="M276.31,292.43a24,24,0,0,0,20.16,0v40.45H276.31Z" transform="translate(0 -238.16)"/></g></g></svg>