<svg id="Layer_9" data-name="Layer 9" xmlns="http://www.w3.org/2000/svg" viewBox="0 0 375.46 123.59"><defs><style>.cls-1{fill:#ea4335;}.cls-2{fill:#fbbc05;}.cls-3{fill:#4285f4;}.cls-4{fill:#34a853;}</style></defs><path class="cls-1" d="M272.94,301.54c0,17.78-13.91,30.88-31,30.88s-31-13.1-31-30.88,13.91-30.89,31-30.89S272.94,283.63,272.94,301.54Zm-13.56,0c0-11.11-8.06-18.72-17.42-18.72s-17.42,7.61-17.42,18.72,8.07,18.71,17.42,18.71S259.38,312.52,259.38,301.54Z" transform="translate(-112.27 -236.5)"/><path class="cls-2" d="M339.78,301.54c0,17.78-13.91,30.88-31,30.88s-31-13.1-31-30.88,13.91-30.89,31-30.89S339.78,283.63,339.78,301.54Zm-13.56,0c0-11.11-8.06-18.72-17.42-18.72s-17.42,7.61-17.42,18.72,8.06,18.71,17.42,18.71S326.22,312.52,326.22,301.54Z" transform="translate(-112.27 -236.5)"/><path class="cls-3" d="M403.83,272.52V328c0,22.8-13.45,32.12-29.35,32.12a29.39,29.39,0,0,1-27.37-18.2l11.8-4.92c2.11,5,7.26,11,15.56,11,10.18,0,16.48-6.28,16.48-18.1v-4.44h-.47c-3,3.75-8.88,7-16.26,7-15.44,0-29.59-13.45-29.59-30.76s14.15-31,29.59-31c7.36,0,13.21,3.28,16.26,6.91H391v-5h12.88Zm-11.91,29.13c0-10.88-7.26-18.83-16.49-18.83s-17.2,7.95-17.2,18.83,7.84,18.6,17.2,18.6S391.92,312.41,391.92,301.65Z" transform="translate(-112.27 -236.5)"/><path class="cls-4" d="M425.07,240v90.51H411.84V240Z" transform="translate(-112.27 -236.5)"/><path class="cls-1" d="M476.62,311.7l10.52,7a30.71,30.71,0,0,1-25.73,13.69c-17.54,0-30.65-13.56-30.65-30.89,0-18.36,13.22-30.88,29.13-30.88s23.87,12.75,26.43,19.65l1.41,3.51-41.29,17.09c3.16,6.2,8.08,9.36,15,9.36s11.7-3.4,15.21-8.55Zm-32.4-11.11,27.59-11.46c-1.51-3.86-6.08-6.54-11.46-6.54C453.46,282.59,443.87,288.67,444.22,300.59Z" transform="translate(-112.27 -236.5)"/><path class="cls-3" d="M160.91,293.5V280.4h44.15a43.47,43.47,0,0,1,.66,7.91c0,9.83-2.69,22-11.35,30.65-8.43,8.77-19.19,13.45-33.45,13.45-26.43,0-48.65-21.53-48.65-48s22.22-47.95,48.65-47.95a45.67,45.67,0,0,1,32.86,13.21L184.54,259a33.38,33.38,0,0,0-23.63-9.36c-19.3,0-34.39,15.55-34.39,34.85s15.09,34.85,34.39,34.85c12.52,0,19.65-5,24.21-9.59,3.71-3.7,6.14-9,7.1-16.22Z" transform="translate(-112.27 -236.5)"/></svg>