<svg id="Layer_5" data-name="Layer 5" xmlns="http://www.w3.org/2000/svg" viewBox="0 0 380.27 123.19"><defs><style>.cls-1{fill:#00b14f;}</style></defs><path class="cls-1" d="M167,359.53c-15.39-1.25-28.86-6.81-39.1-16.14a55.11,55.11,0,0,1-17.61-33.21,76.66,76.66,0,0,1-.2-14.31,53.53,53.53,0,0,1,13.22-29.61,74.63,74.63,0,0,1,8.64-8.05c12.81-9.68,29-14.4,46.48-13.56A74.93,74.93,0,0,1,198.72,248c4.41,1.37,10.74,4.29,12.69,5.84l.49.39-.05,4.38-.06,4.38-2.09-1.17c-9.58-5.38-21.74-8.23-35.09-8.22a59.08,59.08,0,0,0-30.67,8.11,49.06,49.06,0,0,0-20.08,22.62c-5.46,12.66-4.62,28.13,2.22,40.61,7.8,14.24,22.16,23.39,40,25.49a70.57,70.57,0,0,0,18.47-.67c18-3.3,29.26-14.51,31.66-31.47a63.86,63.86,0,0,0,.35-8.53l0-6.17-21.24,0-21.24-.05v-8.71H226v7.85c0,8.85-.21,13.48-.78,17.19-1.73,11.18-6.3,20.09-13.83,27s-17.41,11.05-30,12.52a117.77,117.77,0,0,1-14.43.26Zm242.24-104V236.5H419v32.24l-.85.35c-1.74.71-4.21,2.25-8.65,5.39-.2.14-.25-3.67-.25-18.91Zm-14.73,6.91v-26h9.75v41.59l-1.52,1.48c-1.56,1.51-4.37,4.52-6.63,7.1-.69.8-1.34,1.53-1.43,1.63S394.53,276.78,394.53,262.48Z" transform="translate(-109.86 -236.5)"/><path class="cls-1" d="M169.61,346c-12.24-.88-22.55-5.19-30.67-12.82a40,40,0,0,1-5.59-6.34,42.71,42.71,0,0,1-7.11-33.07c3-14.63,14-26.78,29.53-32.41a56.42,56.42,0,0,1,13.43-2.92,101.59,101.59,0,0,1,14.24.28c10.24,1.28,19.38,4.16,26.71,8.43l1.74,1v4.31c0,3.92,0,4.32-.35,4.47s-.89-.14-2.84-1.26a62.93,62.93,0,0,0-25.46-8.08,92,92,0,0,0-14.33-.1c-17.58,2.31-30.11,13.85-32.33,29.79a40.48,40.48,0,0,0,1,14.7,33,33,0,0,0,17.59,21.21A38.62,38.62,0,0,0,172.89,337c9.55,0,17.23-2.47,22.49-7.25a17.21,17.21,0,0,0,5.86-11l.15-1.32h-27.3v-9.25h37.4v3.7c0,5.71-.5,9.1-1.9,12.93-2.85,7.77-8.9,13.94-17.2,17.55A46.56,46.56,0,0,1,174.12,346c-1.93,0-4,0-4.51,0Zm270.82.1a32.59,32.59,0,0,1-20.36-9.31,30,30,0,0,1-8.4-13.55c-.75-2.78-1-2.24,3.27-7.58,2.07-2.61,3.83-4.74,3.9-4.75a7.54,7.54,0,0,1,.26,1.94,28.71,28.71,0,0,0,1,6.49A24.2,24.2,0,0,0,439.56,337a29.11,29.11,0,0,0,9.09-.31c8.57-2,14.27-7.92,16.44-17.05a37.5,37.5,0,0,0,0-10.84,22.18,22.18,0,0,0-6.15-11c-4.3-4.13-9.94-6.24-16.67-6.24-8.63,0-14.91,3.2-23.19,11.8-8.1,8.42-21.55,24-28.31,32.82l-2.41,3.15V324.6l3.44-4.26c1.89-2.35,5.2-6.35,7.36-8.89s5.15-6.1,6.66-7.9c6.9-8.25,11.36-12.39,17-15.82,11.67-7.06,27-7.24,38.18-.44,11.37,6.94,16.83,20.52,13.78,34.25a30.9,30.9,0,0,1-21,23.08A35.08,35.08,0,0,1,446,346.1a25.56,25.56,0,0,1-5.53,0Zm-81.51-11.81c0-19.74,0-23.15-.31-24.78a20.74,20.74,0,0,0-8.56-14.09,23.8,23.8,0,0,0-10.2-3.87,29.82,29.82,0,0,0-9.68.38A22.57,22.57,0,0,0,313,309.63a29.34,29.34,0,0,0,.1,10,21.93,21.93,0,0,0,16.14,16.76c7.28,1.91,17.32.48,23.53-3.36l1.14-.71L353.9,337l0,4.67-2,1a43,43,0,0,1-18.51,3.6c-10.68-.66-19.27-5.08-25-12.87-6.09-8.29-7.65-20.32-3.95-30.47,4.9-13.41,18.62-21.59,34.27-20.45,8.48.62,14.86,3.22,20.45,8.33,5.17,4.73,7.94,9.84,9.27,17.08.32,1.73.35,4,.42,25.63l.07,23.73h-10Zm-111.61-.57c0-24.05.08-27.28.78-30.42a25.71,25.71,0,0,1,14.71-18,37.24,37.24,0,0,1,7.78-2.26c6.64-1,13.55-.1,18.45,2.46l1,.54-.82,1.21c-.45.67-1.44,2.38-2.19,3.81s-1.39,2.58-1.41,2.58l-1.93-.61a23,23,0,0,0-12.67-.74,18.06,18.06,0,0,0-9.73,5.76,21.76,21.76,0,0,0-3.41,6.57l-.55,1.82-.05,25.36-.06,25.36H247.3Z" transform="translate(-109.86 -236.5)"/><path class="cls-1" d="M232.78,332.18c0-25,.05-27,.72-30.72a36.79,36.79,0,0,1,18.43-26.21c9.32-5.16,21.68-6.92,33.57-4.79A43.69,43.69,0,0,1,298.26,275l1.31.77-2.33,2.1c-1.28,1.16-2.73,2.55-3.22,3.08l-.9,1-1.17-.53a42.68,42.68,0,0,0-15.62-3.12c-16,0-28.48,8.47-32.39,22-1.35,4.64-1.29,3.2-1.36,31.39l-.07,25.55h-9.73ZM438.9,359.61c-14.93-1.25-27.3-7.78-34.91-18.45a39.83,39.83,0,0,1-3.69-6.79l-.25-.75,3.46-4.29L407,325l.17.6a33.37,33.37,0,0,0,14.07,18.69,47.43,47.43,0,0,0,8.65,4.19,41.48,41.48,0,0,0,20.73,1.56,40.36,40.36,0,0,0,13.78-5.38,46.83,46.83,0,0,0,8.24-7.45A37.69,37.69,0,0,0,480,320a48.64,48.64,0,0,0,0-11.69,34.63,34.63,0,0,0-14.76-23.79c-6.82-4.73-16.44-7.18-25.61-6.53-13.9,1-23.47,6.74-37.24,22.42-1.41,1.6-5.12,6-8.23,9.82l-5.74,7s-.07-2.9-.07-6.54v-6.61l3.33-4.26c7.07-9,10.13-12.49,15-16.88a51.5,51.5,0,0,1,14.44-9.71,49.68,49.68,0,0,1,14.22-4,76.22,76.22,0,0,1,14.33,0c11,1.54,19.69,5.59,27.05,12.57s11.53,15.31,13.17,25.84a79.22,79.22,0,0,1,0,13.07A45.45,45.45,0,0,1,482,340.57c-7.49,10.37-18.4,16.77-31.85,18.7a98.08,98.08,0,0,1-11.24.34Zm-108-.1c-21.56-1.8-38.21-15.62-42.36-35.18a37.28,37.28,0,0,1-.92-10,39.6,39.6,0,0,1,2-14c4.08-12.82,14.44-23.46,27.65-28.37a50.21,50.21,0,0,1,19-3.27,51.11,51.11,0,0,1,18,2.88,43.84,43.84,0,0,1,16,9.65c6.89,6.43,11,14.17,12.77,24.09.42,2.33.43,2.87.49,27.1l.07,24.73h-10V334.45c0-14.11-.08-23.56-.21-24.91A33.5,33.5,0,0,0,362,287c-7.38-6.37-18.19-9.73-28.79-9-18.23,1.34-31.77,12.73-35,29.42a42.79,42.79,0,0,0,.4,16,38.74,38.74,0,0,0,5,11.65A34.53,34.53,0,0,0,322,348.63a43.89,43.89,0,0,0,20.74,1.47A34.55,34.55,0,0,0,353,346.48l.91-.57v9l-1.15.69a33.18,33.18,0,0,1-13.08,3.92,58.12,58.12,0,0,1-8.85,0Z" transform="translate(-109.86 -236.5)"/></svg>