<svg id="Layer_2" data-name="Layer 2" xmlns="http://www.w3.org/2000/svg" xmlns:xlink="http://www.w3.org/1999/xlink" viewBox="0 0 572.58 126.82"><defs><style>.cls-1{fill:url(#linear-gradient);}.cls-2{fill:url(#linear-gradient-2);}.cls-3{fill:#fff;}.cls-4{fill:url(#linear-gradient-3);}.cls-5{fill:url(#linear-gradient-4);}.cls-6{fill:#0f0e0e;}</style><linearGradient id="linear-gradient" x1="526.6" y1="338.45" x2="586.29" y2="338.45" gradientTransform="matrix(1, 0, 0, -1, 0, 602)" gradientUnits="userSpaceOnUse"><stop offset="0" stop-color="#eb712a"/><stop offset="0.23" stop-color="#ef8528"/><stop offset="0.47" stop-color="#f29426"/><stop offset="0.62" stop-color="#f39a24"/></linearGradient><linearGradient id="linear-gradient-2" x1="444.39" y1="319.98" x2="569.51" y2="319.98" gradientTransform="matrix(1, 0, 0, -1, 0, 602)" gradientUnits="userSpaceOnUse"><stop offset="0" stop-color="#343434"/><stop offset="0.55" stop-color="#696968"/><stop offset="1" stop-color="#696968"/></linearGradient><linearGradient id="linear-gradient-3" x1="477.16" y1="254.97" x2="502.91" y2="254.97" gradientTransform="matrix(1, 0, 0, -1, -13.71, 368.41)" xlink:href="#linear-gradient-2"/><linearGradient id="linear-gradient-4" x1="539.03" y1="254.97" x2="564.77" y2="254.97" gradientTransform="matrix(1, 0, 0, -1, -13.71, 368.41)" xlink:href="#linear-gradient-2"/></defs><path class="cls-1" d="M556.32,233.59a30,30,0,1,0,30,30A29.58,29.58,0,0,0,556.32,233.59Z" transform="translate(-13.71 -233.59)"/><path class="cls-2" d="M557.93,302.08c-1.07,3.75-1.61,7-2.68,9.1l-.53,1.07a5.21,5.21,0,0,1-5.35,4.28h-1.61a4.62,4.62,0,0,1-3.21-1.6,7.67,7.67,0,0,1-1.07-3.21L545.09,301a4.05,4.05,0,0,1,1.07-2.14,35,35,0,0,1-26.76-34.24c0-2.68.54-4.82.54-7.5H476.06a5.22,5.22,0,0,1-5.36-4.28l-2.14-9.09c-1.07-3.22-3.74-5.89-7.49-5.89H448.23a4.28,4.28,0,0,0,0,8.56h7a5.22,5.22,0,0,1,5.35,4.28l17.12,69.57c1.07,3.21,3.75,5.88,7.49,5.88h70.1c3.75,0,6.43-2.14,7.5-5.88l5.88-23.55a42.85,42.85,0,0,1-11.24,2.68C558.46,301,558.46,301.55,557.93,302.08Zm-78.66-19.26c-.54-2.68-1.61-5.35-2.14-7.49l-.54-2.14c-.53-1.07,0-2.14.54-3.21a3.81,3.81,0,0,1,3.21-1.61h4.81c2.68,0,4.82,1.61,4.82,4.28l1.6,9.63a3.93,3.93,0,0,1-1.07,3.21,3.79,3.79,0,0,1-3.21,1.61h-2.67C481.94,286.57,479.8,285,479.27,282.82Zm16.59,32.11a3.83,3.83,0,0,1-3.22,1.6h-.53a5.2,5.2,0,0,1-5.35-4.28l-.54-1.07c-.53-2.67-1.6-5.89-2.67-9.63-.54-1.07,0-2.14.53-3.21a3.82,3.82,0,0,1,3.21-1.61H490a5.21,5.21,0,0,1,5.35,4.28l1.61,10.71C496.93,312.79,496.93,314.39,495.86,314.93Zm19.79-2.14a3.65,3.65,0,0,1-3.74,3.74c-2.14,0-4.28-1.6-4.28-3.74L506,301.55a3.93,3.93,0,0,1,1.07-3.21,3.82,3.82,0,0,1,3.21-1.61h1.61a4.8,4.8,0,0,1,4.82,4.82v11.24Zm0-30.51a4.79,4.79,0,0,1-4.81,4.82h-3.75a5.22,5.22,0,0,1-5.35-4.28l-1.07-10.17a3.93,3.93,0,0,1,1.07-3.21,4.62,4.62,0,0,1,3.21-1.6h6.42c2.68,0,4.28,2.14,4.28,4.81ZM536,301.55l-1.61,11.24a4.53,4.53,0,0,1-4.28,3.74,3.65,3.65,0,0,1-3.74-3.74V301.55a4.79,4.79,0,0,1,4.81-4.82h1.61a4.63,4.63,0,0,1,3.21,1.61Z" transform="translate(-13.71 -233.59)"/><polygon class="cls-3" points="542.62 4.28 550.11 19.26 567.23 21.94 554.92 33.71 557.6 50.3 542.62 42.81 527.63 50.3 530.31 33.71 518.53 21.94 535.12 19.26 542.62 4.28"/><ellipse class="cls-4" cx="476.26" cy="113.45" rx="12.84" ry="13.38"/><ellipse class="cls-5" cx="538.33" cy="113.45" rx="12.84" ry="13.38"/><path class="cls-6" d="M159.26,334.19c-5.88,4.28-15,5.89-27.29,5.89H106.29a41.63,41.63,0,0,1-8-1.07c-2.68-.54-5.35-1.61-7.49-2.14a19.21,19.21,0,0,1-6.42-4.28,22.05,22.05,0,0,1-4.29-7,27,27,0,0,1-1.6-10.17v-61H94.51v60.47c0,6.42,5.89,9.63,18.2,9.63h21.94q17.65,0,17.66-9.63V254.46h16.05V316C167.82,324,165.15,330.45,159.26,334.19Z" transform="translate(-13.71 -233.59)"/><path class="cls-6" d="M289.3,341.15V285l-34.79,51.37a16.13,16.13,0,0,1-4.28,4.28,9,9,0,0,1-5.35,1.61c-3.74,0-6.95-1.61-9.63-5.35l-34.78-52.45v56.73H184.41v-77.6a9.21,9.21,0,0,1,2.68-6.95,8.83,8.83,0,0,1,6.42-2.68,11.45,11.45,0,0,1,9.1,4.28L246,320.28l42.81-61.54c2.14-3.21,4.82-4.82,8.56-4.82a8.87,8.87,0,0,1,6.43,2.68,10.6,10.6,0,0,1,2.67,7.49v76.52H289.3Z" transform="translate(-13.71 -233.59)"/><path class="cls-6" d="M321.4,340.61V254.46h16.06v86.15Z" transform="translate(-13.71 -233.59)"/><path class="cls-6" d="M446.62,341.15,433.25,317.6H382.94L370.1,341.15H350.84L399,260.34c2.14-3.74,5.35-5.88,9.1-5.88s6.95,2.14,9.09,5.88l47.09,80.81ZM408.1,275.86l-15.52,25.69h31Z" transform="translate(-13.71 -233.59)"/><path class="cls-6" d="M62.4,302.08c0,26.22-9.63,37.46-26.75,41.21-16.59,3.21-21.94,3.21-21.94,3.21V328.84c6.42-.54,16.59-1.61,23-3.75,5.89-2.14,10.17-8,10.17-23l.53-31.57v-16H63.48Z" transform="translate(-13.71 -233.59)"/></svg>