<svg id="Layer_7" data-name="Layer 7" xmlns="http://www.w3.org/2000/svg" viewBox="0 0 564.65 126.04"><path d="M117,237H89.24a71.15,71.15,0,0,1-28.68,57.35l-11,8.23,42.64,58.09h35L88,307.17A98.29,98.29,0,0,0,117,237Z" transform="translate(-17.68 -236.98)"/><rect width="28.43" height="123.68"/><rect x="117.82" width="26.8" height="123.68"/><path d="M397.43,272.76c-10.22,0-19.95,3.12-26.43,12v-9.6H345.57v85.52h25.81V315.77c0-13,8.72-19.32,19.2-19.32,11.22,0,17.7,6.73,17.7,19.2v45.13h25.56V306.3C433.84,286.35,418,272.76,397.43,272.76Z" transform="translate(-17.68 -236.98)"/><path d="M243.34,275.13v5.48a44.6,44.6,0,0,0-25.44-7.85,45.13,45.13,0,1,0,0,90.26,44.6,44.6,0,0,0,25.44-7.85v5.48h25.55V275.13ZM220,339.83c-12.84,0-23.19-9.85-23.19-21.94S207.18,296,220,296s23.19,9.85,23.19,21.94S232.86,339.83,220,339.83Z" transform="translate(-17.68 -236.98)"/><path d="M308.54,286.22V275.13H282.36v85.52h26.3V320.76c0-13.47,14.59-20.7,24.69-20.7h.25V275.13C323.25,275.13,313.65,279.62,308.54,286.22Z" transform="translate(-17.68 -236.98)"/><path d="M513.38,275.13v5.48A44.57,44.57,0,0,0,488,272.76,45.13,45.13,0,1,0,488,363a44.57,44.57,0,0,0,25.43-7.85v5.48h25.56V275.13Zm-23.32,64.7c-12.84,0-23.18-9.85-23.18-21.94S477.22,296,490.06,296s23.19,9.85,23.19,21.94S502.91,339.83,490.06,339.83Z" transform="translate(-17.68 -236.98)"/><path d="M566.24,330.36a16.08,16.08,0,1,0,16.08,16.08A16.12,16.12,0,0,0,566.24,330.36Z" transform="translate(-17.68 -236.98)"/></svg>