<svg id="Layer_3" data-name="Layer 3" xmlns="http://www.w3.org/2000/svg" xmlns:xlink="http://www.w3.org/1999/xlink" viewBox="0 0 580.4 131.16"><defs><style>.cls-1{fill:none;}.cls-2{fill:#ffa300;}.cls-3{clip-path:url(#clip-path);}.cls-4{fill:#ff671d;}</style><clipPath id="clip-path" transform="translate(-9.89 -229.61)"><rect class="cls-1" x="538.01" y="266.53" width="52.1" height="57.69"/></clipPath></defs><g id="surface1"><path class="cls-2" d="M405,323.86H393.69a.89.89,0,0,1-.9-.81v-.18l6.4-35.61a.8.8,0,0,0-.63-1.08c-.54-.09-1,.09-1.08.63l-15.69,36.51a.86.86,0,0,1-.81.54H367.1a.81.81,0,0,1-.81-.81l-2.8-36.69a.86.86,0,1,0-1.71-.09l-6.4,36.78a.85.85,0,0,1-.81.72H343.39a1,1,0,0,1-.9-.9v-.09l9.83-55.62a.85.85,0,0,1,.81-.72h19.65a.81.81,0,0,1,.81.81l2.7,38.94a1,1,0,0,0,1,.81.89.89,0,0,0,.72-.54L394,267a.79.79,0,0,1,.81-.54h20a.89.89,0,0,1,.9.81v.18l-9.83,55.62c-.09.54-.45.9-.9.81" transform="translate(-9.89 -229.61)"/><path class="cls-2" d="M465,290.51c0-9.2-4.68-15.51-13.34-15.51-12.62,0-18.57,13.62-18.57,24.88,0,9.11,4.69,15.51,13.35,15.51,12.61,0,18.56-13.52,18.56-24.88m13.8-.27c0,20.46-13.62,34.79-33.09,34.79-16.94,0-26.32-10.81-26.32-24.88,0-20.55,13.61-34.79,33.08-34.79,17,0,26.33,10.82,26.33,24.88" transform="translate(-9.89 -229.61)"/><path class="cls-2" d="M495.73,323.14l-9.64-55.62a.83.83,0,0,1,.63-1h12.53a.81.81,0,0,1,.81.81L505.83,311a.87.87,0,1,0,1.71.27l21.55-44.17a1,1,0,0,1,.81-.54h11.9a.83.83,0,0,1,.9.81,1.14,1.14,0,0,1-.09.54L513.13,323.5a1,1,0,0,1-.81.45H496.54a1,1,0,0,1-.81-.81" transform="translate(-9.89 -229.61)"/><g class="cls-3"><path class="cls-2" d="M558.47,290.06h24.7a1,1,0,0,1,.9.81v.18l-1.44,8.38a.85.85,0,0,1-.81.72H556.4a.79.79,0,0,0-.81.72l-2,11.72a.83.83,0,0,0,.64,1h27.58a.9.9,0,0,1,.9.82v.18l-1.53,8.47a.85.85,0,0,1-.81.72H539.72a.89.89,0,0,1-.9-.81v-.18l9.83-55.62a.85.85,0,0,1,.81-.72h39.93a.89.89,0,0,1,.9.81v.18l-1.53,8.39a.85.85,0,0,1-.81.72H560.73a.8.8,0,0,0-.82.72l-2.07,11.63a.83.83,0,0,0,.63,1c-.18.18-.09.18,0,.18" transform="translate(-9.89 -229.61)"/></g><path class="cls-4" d="M167.52,323.86h-37a.89.89,0,0,1-.9-.81v-.18l9.73-55.62a.85.85,0,0,1,.81-.72H151.3a1,1,0,0,1,.9.81v.18l-7.75,44.35a.83.83,0,0,0,.63,1H172.3a.83.83,0,0,1,.9.81,1.16,1.16,0,0,1-.09.55l-4.86,9.19a.56.56,0,0,1-.73.45" transform="translate(-9.89 -229.61)"/><path class="cls-4" d="M273.89,323.86h-37a1,1,0,0,1-.9-.81v-.18l9.83-55.62a.85.85,0,0,1,.81-.72h11.18a.89.89,0,0,1,.9.81v.18l-7.84,44.35a.83.83,0,0,0,.63,1h27.22a.83.83,0,0,1,.9.81,1.16,1.16,0,0,1-.09.55l-4.87,9.19a.71.71,0,0,1-.72.45" transform="translate(-9.89 -229.61)"/><path class="cls-4" d="M327.62,267.25a.85.85,0,0,0-.81-.72H311a1,1,0,0,0-.81.45L280.74,322.6a.8.8,0,0,0,.27,1.17.6.6,0,0,0,.54.09h11.9a1,1,0,0,0,.81-.45l1.9-3.79,11.63-23.43v-.09l1.71-3.52,1.17-2.34,4.69-9.47a.87.87,0,1,1,1.71.27l2.16,15.33a.89.89,0,0,1-.72,1h-7.12a1.17,1.17,0,0,0-1.08.72l-3.88,7.75a1.25,1.25,0,0,0,.55,1.72,1.28,1.28,0,0,0,.54.18h12.71a.79.79,0,0,1,.81.72l2.07,14.69a.85.85,0,0,0,.81.72h12.35a.89.89,0,0,0,.9-.81v-.18" transform="translate(-9.89 -229.61)"/><path class="cls-4" d="M221.25,267.25a.85.85,0,0,0-.81-.72H204.66a1,1,0,0,0-.81.45L174.38,322.6a.79.79,0,0,0,.36,1.17.67.67,0,0,0,.45.09h11.9a1,1,0,0,0,.81-.45l.81-1.71,12.71-25.51h0l1.26-2.44.63-1.35,5.77-11.54a.87.87,0,0,1,1.71.27L213,296.46a.89.89,0,0,1-.72,1h-7.13a1.17,1.17,0,0,0-1.08.72l-3.87,7.75a1.33,1.33,0,0,0,.54,1.72,1.14,1.14,0,0,0,.54.09H214a.79.79,0,0,1,.81.72l2.07,14.69a.85.85,0,0,0,.81.72H230a.89.89,0,0,0,.9-.81v-.18" transform="translate(-9.89 -229.61)"/><path class="cls-4" d="M111,247.94c-35.19,0-27.48,23.2-27.48,23.2-4.71-1.5-64.68-21.35-73.24-24.13-.15-.07-.29,0-.36.21a.45.45,0,0,0,.07.29c.86,1,2.64,3,5.43,6.07a3.07,3.07,0,0,0,.78.5l.86.28,49.68,16.28a1,1,0,0,1,.65.57l2.71,4.57v.07H70L21.52,259.93c-.07,0-.14,0-.14.07v.14c1.14,1.29,2.36,2.57,3.57,3.93a3.37,3.37,0,0,0,1.21.79L72.21,280a1.12,1.12,0,0,1,.64.5l2.72,4.57v.07h-.08l-44-14.42c-.07,0-.15,0-.15.07v.14l4.15,4.36a1.44,1.44,0,0,0,.64.36l41.55,13.63a1.83,1.83,0,0,1,.92.71l2.65,4.43v.07h-.08L42.44,281.85c-.07,0-.21,0-.21.14a.26.26,0,0,0,.07.21c8.64,8.57,16.28,15.49,19.2,15.71L33.8,360.16a.45.45,0,0,0,.22.57.34.34,0,0,0,.43-.07C46.94,350.45,55.72,323.18,69,315.9c19.2-10.5,26.63-16.64,31.34-27.13,5.57-12.35,12.7-33,13.78-33.84,7.56-5.85,21.13-19,26.91-24.63a.44.44,0,0,0,0-.57.45.45,0,0,0-.5-.07c-8,5.21-28.48,18.28-29.56,18.28" transform="translate(-9.89 -229.61)"/></g></svg>