<svg id="Layer_14" data-name="Layer 14" xmlns="http://www.w3.org/2000/svg" xmlns:xlink="http://www.w3.org/1999/xlink" viewBox="0 0 600 120.89"><defs><style>.cls-1{fill:#0081fb;}.cls-2{fill:url(#linear-gradient);}.cls-3{fill:url(#linear-gradient-2);}.cls-4{fill:#192830;}</style><linearGradient id="linear-gradient" x1="39.45" y1="308.13" x2="164.77" y2="301.8" gradientTransform="matrix(1, 0, 0, -1, 0, 602)" gradientUnits="userSpaceOnUse"><stop offset="0" stop-color="#0064e1"/><stop offset="0.4" stop-color="#0064e1"/><stop offset="0.83" stop-color="#0073ee"/><stop offset="1" stop-color="#0082fb"/></linearGradient><linearGradient id="linear-gradient-2" x1="26.22" y1="277.47" x2="26.22" y2="323.67" gradientTransform="matrix(1, 0, 0, -1, 0, 602)" gradientUnits="userSpaceOnUse"><stop offset="0" stop-color="#0082fb"/><stop offset="1" stop-color="#0064e0"/></linearGradient></defs><path id="Logo0" class="cls-1" d="M19.66,316.28c0,7,1.52,12.28,3.52,15.51a12,12,0,0,0,10.48,6c5.13,0,9.82-1.27,18.86-13.77C59.76,314,68.29,300,74,291.14l9.72-14.94c6.76-10.37,14.57-21.9,23.53-29.72,7.32-6.38,15.21-9.92,23.16-9.92,13.33,0,26,7.72,35.76,22.22,10.64,15.87,15.8,35.87,15.8,56.5,0,12.26-2.42,21.28-6.53,28.4-4,6.88-11.72,13.76-24.75,13.76V337.81c11.15,0,13.94-10.25,13.94-22,0-16.72-3.9-35.28-12.49-48.54-6.09-9.4-14-15.15-22.68-15.15-9.4,0-17,7.09-25.46,19.73-4.52,6.72-9.16,14.9-14.37,24.13l-5.74,10.16c-11.51,20.43-14.43,25.08-20.19,32.76C53.63,352.35,45,357.44,33.66,357.44c-13.46,0-22-5.83-27.24-14.61C2.11,335.67,0,326.28,0,315.58Z" transform="translate(0 -236.56)"/><path id="Logo1" class="cls-2" d="M15.5,260.16c9-13.89,22-23.6,36.94-23.6,8.64,0,17.22,2.55,26.19,9.88,9.81,8,20.27,21.19,33.31,42.91l4.68,7.8c11.29,18.81,17.72,28.49,21.47,33.05,4.84,5.86,8.23,7.61,12.63,7.61,11.15,0,13.94-10.25,13.94-22l17.34-.54c0,12.26-2.42,21.28-6.53,28.4-4,6.88-11.72,13.76-24.75,13.76-8.11,0-15.28-1.76-23.22-9.24-6.1-5.75-13.23-16-18.72-25.14L92.46,295.8c-8.19-13.69-15.71-23.89-20-28.51-4.68-5-10.69-11-20.29-11-7.77,0-14.36,5.45-19.88,13.79Z" transform="translate(0 -236.56)"/><path id="Logo2" class="cls-3" d="M52.12,256.32c-7.77,0-14.36,5.45-19.88,13.79-7.8,11.78-12.58,29.32-12.58,46.17,0,7,1.52,12.28,3.52,15.51l-16.76,11C2.11,335.67,0,326.28,0,315.58c0-19.47,5.34-39.75,15.5-55.42,9-13.89,22-23.6,36.94-23.6Z" transform="translate(0 -236.56)"/><path id="Text" class="cls-4" d="M220.22,240.38H243l38.66,69.95,38.67-69.95h22.25V355.32H324V267.23l-33.91,61H272.67l-33.9-61v88.09H220.22Zm180.44,42.85c-13.3,0-21.31,10-23.23,22.42h45.15c-.93-12.78-8.3-22.42-21.92-22.42ZM359,312.71c0-26.09,16.86-45.08,41.95-45.08,24.67,0,39.41,18.75,39.41,46.47v5.1h-63c2.23,13.48,11.18,22.57,25.61,22.57,11.52,0,18.71-3.51,25.54-9.93l9.85,12.07c-9.28,8.53-21.09,13.46-36,13.46C375.23,357.37,359,337.56,359,312.71Zm103.85-27.83H445.82V269.69h17.07V244.57h17.9v25.12h25.94v15.19H480.79v38.5c0,13.15,4.2,17.82,14.53,17.82a60.38,60.38,0,0,0,11.41-1.07v15a53.09,53.09,0,0,1-14.86,2.05q-29,0-29-31.69ZM582.1,299.65c-3.59-9.07-11.61-15.76-23.4-15.76-15.31,0-25.12,10.87-25.12,28.57,0,17.26,9,28.65,24.39,28.65,12.07,0,20.69-7,24.13-15.76ZM600,355.32H582.43v-12c-4.91,7.06-13.85,14-28.32,14-23.28,0-38.84-19.49-38.84-44.91,0-25.66,15.93-44.83,39.82-44.83,11.82,0,21.08,4.72,27.34,13.06v-11H600Z" transform="translate(0 -236.56)"/></svg>