<svg id="Layer_20" data-name="Layer 20" xmlns="http://www.w3.org/2000/svg" viewBox="0 0 579.9 123.67"><defs><style>.cls-1{fill:#737373;}.cls-2{fill:#f25022;}.cls-3{fill:#7fba00;}.cls-4{fill:#00a4ef;}.cls-5{fill:#ffb900;}</style></defs><path class="cls-1" d="M251.22,262.9v74.2H238.33V278.87h-.17l-23,58.23h-8.59L183,278.87h-.17V337.1H171V262.9h18.55l21.3,55h.34l22.51-55Zm10.65,5.67a6.53,6.53,0,0,1,2.23-5.16,7.7,7.7,0,0,1,5.32-2.06,7.53,7.53,0,0,1,5.5,2.06,7.13,7.13,0,0,1,2.23,5.16,6.52,6.52,0,0,1-2.23,5.15,7.81,7.81,0,0,1-5.5,2.06,7.12,7.12,0,0,1-5.32-2.06A7.79,7.79,0,0,1,261.87,268.57Zm13.91,15.28V337.1H263.24V283.85Zm38,44.15a14.39,14.39,0,0,0,6.19-1.38,27,27,0,0,0,6.18-3.43v11.68a22.14,22.14,0,0,1-6.87,2.58,42.77,42.77,0,0,1-8.42.85c-7.9,0-14.26-2.4-19.06-7.38-5-5-7.39-11.34-7.39-18.9,0-8.58,2.58-15.63,7.56-21.12s12-8.25,21.3-8.25a31.33,31.33,0,0,1,7,.86,23.67,23.67,0,0,1,5.67,2.06v12a24.88,24.88,0,0,0-5.84-3.27,19.69,19.69,0,0,0-6.19-1.2c-5,0-8.93,1.55-12,4.81s-4.47,7.56-4.47,13.05c0,5.33,1.55,9.62,4.47,12.54S308.76,328,313.74,328Zm47.93-45a13.14,13.14,0,0,1,2.74.18,18.39,18.39,0,0,1,2.07.51v12.71a7.79,7.79,0,0,0-2.92-1.37,17.82,17.82,0,0,0-4.64-.69,9.62,9.62,0,0,0-7.73,3.95c-2.06,2.58-3.27,6.53-3.27,12V337.1H335.38V283.85h12.54v8.42h.18a16.19,16.19,0,0,1,5.15-6.87A15.09,15.09,0,0,1,361.67,283Zm5.49,28.35c0-8.76,2.58-15.81,7.39-21q7.47-7.72,20.61-7.73c8.25,0,14.77,2.41,19.41,7.39s7,11.68,7,20.09c0,8.59-2.57,15.46-7.38,20.62-5,5.15-11.68,7.73-20.27,7.73q-12.37,0-19.58-7.22C369.57,326.28,367.16,319.58,367.16,311.34Zm13.06-.52c0,5.5,1.2,9.79,3.78,12.71s6.18,4.47,10.82,4.47c4.46,0,8.07-1.38,10.48-4.47,2.4-2.92,3.6-7.21,3.6-13,0-5.67-1.2-10-3.6-13.06A12.9,12.9,0,0,0,395,293c-4.64,0-8.07,1.54-10.65,4.64C381.42,300.86,380.22,305.15,380.22,310.82Zm60.12-12.88a5.44,5.44,0,0,0,1.71,4.29c1.21,1,3.61,2.24,7.56,3.78,5,2.06,8.59,4.3,10.48,6.7a13.93,13.93,0,0,1,3.09,9.1,14.42,14.42,0,0,1-5.84,12c-3.78,3.09-9.1,4.46-15.63,4.46a41.19,41.19,0,0,1-7.39-.85,30,30,0,0,1-6.87-2.07V323a30.35,30.35,0,0,0,7.39,3.78,23.12,23.12,0,0,0,7.21,1.37c2.75,0,5-.34,6.19-1.2a4.22,4.22,0,0,0,2.06-4,6.08,6.08,0,0,0-2.06-4.47c-1.38-1.2-4.12-2.58-7.9-4.12-4.64-1.89-7.91-4.12-9.79-6.53a15.62,15.62,0,0,1,2.74-21.13c3.78-3.09,8.76-4.63,14.78-4.63a27.46,27.46,0,0,1,6.18.68c2.23.52,4.29,1,5.84,1.55v12.19a37.38,37.38,0,0,0-5.84-2.92,18.37,18.37,0,0,0-6.53-1.2,9.55,9.55,0,0,0-5.49,1.38A5.45,5.45,0,0,0,440.34,297.94Zm28.17,13.4c0-8.76,2.57-15.81,7.38-21q7.47-7.72,20.62-7.73c8.24,0,14.77,2.41,19.41,7.39s7,11.68,7,20.09c0,8.59-2.58,15.46-7.39,20.62-5,5.15-11.68,7.73-20.27,7.73q-12.36,0-19.58-7.22C471.08,326.28,468.51,319.58,468.51,311.34Zm13.05-.52c0,5.5,1.2,9.79,3.78,12.71s6.18,4.47,10.82,4.47c4.47,0,8.07-1.38,10.48-4.47,2.4-2.92,3.61-7.21,3.61-13,0-5.67-1.21-10-3.61-13.06A12.89,12.89,0,0,0,496.33,293c-4.63,0-8.07,1.54-10.65,4.64C482.94,300.86,481.56,305.15,481.56,310.82Zm83.14-16.66H546V337.1H533.26V294.16h-8.93V283.85h8.93v-7.38a18.75,18.75,0,0,1,5.5-13.74c3.61-3.61,8.25-5.33,13.91-5.33,1.55,0,2.92.17,4.13.17a8.28,8.28,0,0,1,3.09.69v10.82a23.64,23.64,0,0,0-2.23-.86,11.61,11.61,0,0,0-3.61-.51,7.75,7.75,0,0,0-6,2.4c-1.38,1.55-2.07,4.12-2.07,7.22v6.35H564.7v-12l12.54-3.78v15.8H590V294H577.24v24.9c0,3.27.68,5.5,1.71,6.88q1.81,2.06,5.67,2.06a8.31,8.31,0,0,0,2.58-.52,9.09,9.09,0,0,0,2.58-1.2v10.31a12.28,12.28,0,0,1-3.95,1.2,30.1,30.1,0,0,1-5.5.51q-8,0-11.85-4.12c-2.58-2.75-4-7-4-12.71l.17-27.14Z" transform="translate(-10.05 -238.16)"/><rect class="cls-2" width="58.75" height="58.75"/><rect class="cls-3" x="64.93" width="58.75" height="58.75"/><rect class="cls-4" y="64.93" width="58.75" height="58.75"/><rect class="cls-5" x="64.93" y="64.93" width="58.75" height="58.75"/></svg>