<svg id="Layer_17" data-name="Layer 17" xmlns="http://www.w3.org/2000/svg" viewBox="0 0 599.55 118.47"><defs><style>.cls-1{fill:#383b42;}</style></defs><path class="cls-1" d="M214.28,251.83c-13.74,0-26,11.35-26,11.35v-8.49H165.78v90.57h22.47V294.87c0-7.32,2.75-14.63,8.39-19.3a16.94,16.94,0,0,1,11-4.15c13.38,0,17,14.22,17,14.22V345.5h22.34V281C246.91,264.73,233.89,251.83,214.28,251.83Z" transform="translate(-0.23 -235.76)"/><path class="cls-1" d="M567.15,251.83c-13.74,0-26,11.35-26,11.35v-8.49H518.65v90.57h22.46V294.87c0-7.32,2.75-14.63,8.39-19.3a17,17,0,0,1,11-4.15c13.38,0,17,14.22,17,14.22V345.5h22.34V281C599.77,264.73,586.75,251.83,567.15,251.83Z" transform="translate(-0.23 -235.76)"/><path class="cls-1" d="M443,249.44c-25.29,0-45.83,21.54-45.83,48.05s20.54,48.05,45.83,48.05,45.82-21.55,45.82-48.05S468.31,249.44,443,249.44Zm0,74c-13.76,0-24.89-11.63-24.89-26s11.13-26.1,24.89-26.1,24.88,11.73,24.88,26.1S456.77,323.48,443,323.48Z" transform="translate(-0.23 -235.76)"/><path class="cls-1" d="M322.05,249.44c-25.29,0-45.82,21.54-45.82,48.05s20.53,48.05,45.82,48.05,45.83-21.55,45.83-48.05S347.34,249.44,322.05,249.44Zm0,74c-13.76,0-24.88-11.63-24.88-26s11.12-26.1,24.88-26.1,24.89,11.73,24.89,26.1S335.81,323.48,322.05,323.48Z" transform="translate(-0.23 -235.76)"/><path class="cls-1" d="M96.63,248.91l-9.24,15.16A41.73,41.73,0,1,1,17.67,295a40.89,40.89,0,0,1,.61-7.12l-18,10.49a59.25,59.25,0,1,0,96.4-49.46ZM59.39,235.76a57.63,57.63,0,0,0-5.92.31l-13,21.7,0,.07a41.35,41.35,0,0,1,27.89-3.58v0l9.27-15.61A58.62,58.62,0,0,0,59.39,235.76Z" transform="translate(-0.23 -235.76)"/></svg>