<svg id="Layer_18" data-name="Layer 18" xmlns="http://www.w3.org/2000/svg" viewBox="0 0 229.54 126.64"><defs><style>.cls-1{fill:#820ad1;}</style></defs><path id="path2" class="cls-1" d="M226.66,248.76a38,38,0,0,1,28.2-12.08c22,0,36.65,16.09,39.45,40.19.9,7.83.89,18.86.88,31.65v51.87h-30.3V325s-.06-30.31-.25-36c-.81-24.67-15.42-40.17-38-40.19-6.8,7.19-10.45,16-11,29.43-.07,1.87,0,8.52,0,17.28,0,4.54,0,9.64,0,14.95,0,23.08,0,49.93,0,49.93h-30.3v-54.5c0-1.87,0-3.76-.07-5.65-.07-3.8-.14-7.63.07-11.43.34-6.33,1.43-12.55,4.39-18.32a40,40,0,0,1,35.36-21.76c.52,0,1,0,1.54,0Z" transform="translate(-185.23 -236.68)"/><path id="path4" class="cls-1" d="M414.63,311.19c.21-3.8.14-7.63.07-11.43,0-1.89-.07-3.78-.07-5.64V239.61h-30.3s0,26.85,0,49.93c0,5.31,0,10.41,0,14.95,0,8.76,0,15.41,0,17.28-.54,13.45-4.19,22.24-11,29.43-22.56,0-37.17-15.52-38-40.19-.19-5.67-.26-19.73-.26-36V239.59l-30.29,0v51.87c0,12.79,0,23.82.89,31.65,2.79,24.1,17.4,40.19,39.44,40.19a38,38,0,0,0,28.2-12.08c.51,0,1,0,1.54,0a40.06,40.06,0,0,0,35.37-21.76c2.95-5.78,4-12,4.38-18.32Z" transform="translate(-185.23 -236.68)"/></svg>