<svg id="Layer_8" data-name="Layer 8" xmlns="http://www.w3.org/2000/svg" viewBox="0 0 297.93 126.51"><defs><style>.cls-1{fill:#ec6f76;}</style></defs><g id="layer1"><g id="g1051"><path id="path1025" class="cls-1" d="M183.91,311c-.61,2.1-1.17,4.21-1.7,6.33l-1.74,6.91c-.53,2-.88,3.68-1.09,4.85a4.73,4.73,0,0,1-4.06,3.89,12.36,12.36,0,0,1-6.12-.47,14.37,14.37,0,0,1-5.71-3.5,8.84,8.84,0,0,1-2.64-6.48,50.37,50.37,0,0,1,1.62-10.06c1.05-4.56,2.58-10,4.53-16.12q3.23-10,6.94-19.89,3.59-9.24,7.8-18.39a6.33,6.33,0,0,1,5-3.62,38.19,38.19,0,0,1,13,.42,3.54,3.54,0,0,1,2.7,4.24,3.58,3.58,0,0,1-.23.7q-3.47,7.65-6.47,15.5-2.33,6-4.5,12.12a.47.47,0,0,0,.27.61.46.46,0,0,0,.38,0,46.54,46.54,0,0,0,5.59-3.15A41.54,41.54,0,0,0,205.6,278a33.9,33.9,0,0,0,5.88-8.68,24,24,0,0,0,2.21-10.15,12.47,12.47,0,0,0-3.86-10.15A16.51,16.51,0,0,0,199,246a26.18,26.18,0,0,0-13.24,3.53,39.72,39.72,0,0,0-10.42,8.36,41.22,41.22,0,0,0-6.71,10.56,25.18,25.18,0,0,0-2.35,9.53,3.84,3.84,0,0,1-2.94,3.88,7.92,7.92,0,0,1-5.24-.23,11.34,11.34,0,0,1-4.71-3.8,12.14,12.14,0,0,1-2.29-7.71,21.31,21.31,0,0,1,3.24-9.94,41.78,41.78,0,0,1,9.26-11,55.67,55.67,0,0,1,15.18-9.06,54.2,54.2,0,0,1,20.83-3.79,57.9,57.9,0,0,1,13.19,1.38,41.24,41.24,0,0,1,11.76,4.62,27.21,27.21,0,0,1,8.27,7.86,18.42,18.42,0,0,1,3.3,10.82,26.56,26.56,0,0,1-3,12.24,35.37,35.37,0,0,1-7.79,10A50.41,50.41,0,0,1,214,291a73.75,73.75,0,0,1-11.3,4.56.41.41,0,0,0-.32.47c0,1.94.24,3.86.41,5.71s.53,4.18.88,6.15.77,3.8,1.27,5.59a56.81,56.81,0,0,0,2.15,6.33,44.11,44.11,0,0,0,2.2,4.2,37.75,37.75,0,0,0,2.3,3.68,31,31,0,0,0,2.5,3.12,26.72,26.72,0,0,0,2.68,2.53,23.41,23.41,0,0,0,2.94,2,20.59,20.59,0,0,0,9.27,2.94,20.82,20.82,0,0,0,3.35,0,25.27,25.27,0,0,0,3.44-.7,30.17,30.17,0,0,0,3.62-1.09,36.93,36.93,0,0,0,5.21-2.45,3.5,3.5,0,0,1,4.56,1,3.42,3.42,0,0,1-.53,4.59,73.29,73.29,0,0,1-6.71,5.2c-1.47,1-2.94,2-4.47,2.94L235.08,349a46.5,46.5,0,0,1-4.59,2,40.69,40.69,0,0,1-4.53,1.38,33.66,33.66,0,0,1-4.45.77,31.14,31.14,0,0,1-4.32,0,28.12,28.12,0,0,1-6.18-1,27.16,27.16,0,0,1-5.68-2.3,28.68,28.68,0,0,1-3.44-2.2,31.76,31.76,0,0,1-2.59-2.18,34,34,0,0,1-2.94-2.94,39.58,39.58,0,0,1-2.59-3.47,44.42,44.42,0,0,1-2.18-4c-.7-1.35-1.38-2.79-2-4.26s-1.18-2.94-1.68-4.62-1-3.3-1.35-5-.76-3.53-1-5.3-.47-3.26-.65-4.91a.46.46,0,0,0-.57-.34.45.45,0,0,0-.34.34" transform="translate(-151.04 -233.66)"/><path id="path1029" class="cls-1" d="M448.85,246.72a13.18,13.18,0,1,1-13.3-13.06h.23A13.12,13.12,0,0,1,449,246.72h0m-62.6,35.78a73.29,73.29,0,0,1-1.94,7.86,88.25,88.25,0,0,1-3.36,9.17q-2.06,4.49-4.47,8.83a56.22,56.22,0,0,1-4.41,6.71,19.86,19.86,0,0,1-3.86,3.91,2.89,2.89,0,0,1-1.53.68h-.2c-.15,0-.62-.38-.86-2a18.92,18.92,0,0,1,.33-5.62,67.52,67.52,0,0,1,2.06-8.06,84.84,84.84,0,0,1,3.35-9.15,76.31,76.31,0,0,1,4.38-8.83,56.3,56.3,0,0,1,4.51-6.65,20.06,20.06,0,0,1,3.85-3.85,2.89,2.89,0,0,1,1.53-.68h0s.62.41.85,2a18.65,18.65,0,0,1-.32,5.53m-59.05,0a72.71,72.71,0,0,1-1.94,7.86,85.2,85.2,0,0,1-3.3,9.32q-2.06,4.49-4.47,8.83a55,55,0,0,1-4.41,6.71,19.26,19.26,0,0,1-3.86,3.79,2.89,2.89,0,0,1-1.53.68h-.2s-.65-.38-.85-2A18.6,18.6,0,0,1,307,312a69.13,69.13,0,0,1,1.94-7.91,87.23,87.23,0,0,1,3.3-9.18,76.1,76.1,0,0,1,4.35-8.83,56.72,56.72,0,0,1,4.47-6.5,20.4,20.4,0,0,1,3.86-3.85,2.89,2.89,0,0,1,1.53-.68h.2s.65.41.86,2a18.66,18.66,0,0,1-.3,5.53m-63.9,0a62.23,62.23,0,0,1-1.47,7.91,72.32,72.32,0,0,1-2.94,9.12q-1.74,4.46-3.92,8.83a45.51,45.51,0,0,1-4,6.62,18.32,18.32,0,0,1-3.47,3.62,2.69,2.69,0,0,1-1.44.68h-.21c-.14,0-.64-.41-.91-2a22.73,22.73,0,0,1,0-5.59,53.25,53.25,0,0,1,1.38-7.83,72.89,72.89,0,0,1,2.95-9.12q1.73-4.47,3.91-8.83a51.51,51.51,0,0,1,4-6.68,18.13,18.13,0,0,1,3.59-3.88,2.69,2.69,0,0,1,1.44-.68h0c.15,0,.71.42,1,2a18.71,18.71,0,0,1,0,5.59m182.41,17a3.83,3.83,0,0,0-3.15-1.62,3.59,3.59,0,0,0-2.94,1.53c-.76,1.12-1.74,2.44-2.94,3.94a52.28,52.28,0,0,1-3.77,4.77,43.18,43.18,0,0,1-4,3.77,4.5,4.5,0,0,1-2.65,1.29c-.32,0-1,0-1.11-1.65a21.36,21.36,0,0,1,.76-6.65,81.39,81.39,0,0,1,2.94-9.12q3.33-8.82,7.18-17.33c1-2.17,1.59-3.58,1.85-4.2a4.58,4.58,0,0,0-.82-5.09,9.5,9.5,0,0,0-4.88-2.94,13.29,13.29,0,0,0-6.33,0,8.44,8.44,0,0,0-5.56,4.11,92.35,92.35,0,0,0-4.59,8.83q-2.94,6.53-5.35,13.3c-1,2.94-2,5.88-2.95,8.82A25.15,25.15,0,0,1,399,313.69,53.35,53.35,0,0,1,394.6,317c-.69.45-1.4.87-2.12,1.27a.24.24,0,0,1-.32-.1.27.27,0,0,1,0-.26c1.22-1.59,2.42-3.3,3.59-5.15a71.06,71.06,0,0,0,6.53-13.41,62.8,62.8,0,0,0,3.8-14.71,31.88,31.88,0,0,0-.56-11.56,14.62,14.62,0,0,0-4.41-7.65,11.79,11.79,0,0,0-7.92-3,18.28,18.28,0,0,0-10,3,39.48,39.48,0,0,0-5.59,4.29h-.35a7.42,7.42,0,0,0-1.53-1.68,11.49,11.49,0,0,0-5.15-2.35,12.13,12.13,0,0,0-5.89.41,7.69,7.69,0,0,0-4.65,4.21q-3.19,6.94-5.88,14.06-3.74,9.12-6.68,18.3a25.22,25.22,0,0,1-8.82,12c-1.06.79-2.15,1.58-3.3,2.29-.69.45-1.39.87-2.12,1.27a.23.23,0,0,1-.31-.1.22.22,0,0,1,0-.26c1.27-1.67,2.47-3.38,3.59-5.15a72,72,0,0,0,6.53-13.41,62.78,62.78,0,0,0,3.79-14.71,31.93,31.93,0,0,0-.41-11.57,14.63,14.63,0,0,0-4.41-7.64,11.75,11.75,0,0,0-7.91-3,18.32,18.32,0,0,0-10,3,39.48,39.48,0,0,0-5.59,4.29h-.35a7.42,7.42,0,0,0-1.53-1.68,11.44,11.44,0,0,0-5.15-2.35,12,12,0,0,0-5.88.41,7.65,7.65,0,0,0-4.68,4.21q-3.21,6.94-5.89,14.06-2.94,7.59-5.59,15.3a24.12,24.12,0,0,1-6.35,10c-.77.74-1.53,1.42-2.27,2a4.51,4.51,0,0,1-2.64,1.3c-.36,0-1,0-1.12-1.65a21.66,21.66,0,0,1,.76-6.65,80.73,80.73,0,0,1,2.94-9.12c1.27-3.32,2.54-6.5,3.8-9.5s2.41-5.65,3.38-7.83q1-2.08,1.83-4.2a4.56,4.56,0,0,0-.83-5.09,9.59,9.59,0,0,0-5-3,13.5,13.5,0,0,0-6.32,0,8.49,8.49,0,0,0-5.53,4.06l-.86,1.45a.24.24,0,0,1-.44,0,12.58,12.58,0,0,0-1.24-3.36,9.78,9.78,0,0,0-3.85-3.88,12,12,0,0,0-6.21-1.47A26.45,26.45,0,0,0,242,270.67c-5.74,5.15-10.47,13.39-14.12,24.48a60.94,60.94,0,0,0-2.94,14.71A31.91,31.91,0,0,0,226,321.28a15.59,15.59,0,0,0,4.82,7.56,12.31,12.31,0,0,0,8,2.94,17.87,17.87,0,0,0,6.47-1.18,25.71,25.71,0,0,0,8.83-5.88,1.4,1.4,0,0,1,2.38.56,11.34,11.34,0,0,0,1.45,2.94,8.13,8.13,0,0,0,7.17,3.32,18.09,18.09,0,0,0,10.74-3.94,59.65,59.65,0,0,0,4.86-4,.46.46,0,0,1,.66.05.45.45,0,0,1,.1.42c-.91,2.94-1.73,5.88-2.47,8.41-1.23,4.39-2.12,8.21-3,11.15a31,31,0,0,0-1.15,5.89,9.22,9.22,0,0,0,2.36,6.41,12.72,12.72,0,0,0,5.23,3.53,11.09,11.09,0,0,0,3.74.68,8.8,8.8,0,0,0,1.91-.21,4.57,4.57,0,0,0,3.71-3.85h0a56.82,56.82,0,0,1,1.18-5.56c.58-2.32,1.29-5.12,2.11-8.09s1.74-6.27,2.95-10.09l1.61-5.56a.47.47,0,0,1,.63-.23.51.51,0,0,1,.23.23,12.49,12.49,0,0,0,.85,1.29,10,10,0,0,0,8.44,3.56h2.3a42.69,42.69,0,0,0,15.71-2.94,63.8,63.8,0,0,0,12.5-6.53.47.47,0,0,1,.65.14.45.45,0,0,1,.06.39q-1.5,4.88-2.94,9.77-1.62,5.61-2.94,11.26a30.23,30.23,0,0,0-1.15,5.89,9.18,9.18,0,0,0,2.35,6.41,12.72,12.72,0,0,0,5.27,3.44,11.43,11.43,0,0,0,3.71.68,8.48,8.48,0,0,0,1.94-.21,4.56,4.56,0,0,0,3.67-3.85h0c.21-1.38.59-3.24,1.18-5.56s1.3-5.12,2.12-8.09,1.76-6.27,2.94-10.09q.76-2.65,1.62-5.56a.47.47,0,0,1,.63-.23.45.45,0,0,1,.22.23,12.57,12.57,0,0,0,.86,1.29,9.92,9.92,0,0,0,8.44,3.56h2.29A42.7,42.7,0,0,0,387,328.72a62.28,62.28,0,0,0,14.41-7.88l2-1.59a.46.46,0,0,1,.66.07.51.51,0,0,1,.11.31v.5a14,14,0,0,0,2.09,8.06,8.16,8.16,0,0,0,7.17,3.33A18.55,18.55,0,0,0,424,327.6a61.43,61.43,0,0,0,9.62-8.82,94.45,94.45,0,0,0,7.62-9.65q2.26-3.3,4.44-6.68a2.94,2.94,0,0,0,0-3.15" transform="translate(-151.04 -233.66)"/></g></g></svg>