<svg id="Layer_11" data-name="Layer 11" xmlns="http://www.w3.org/2000/svg" viewBox="0 0 516.09 146.77"><defs><style>.cls-1{fill:#e84e30;}</style></defs><path id="path2" class="cls-1" d="M113,320.47a15.15,15.15,0,0,1-9.34,12.42,24.06,24.06,0,0,1-10.07,1.73,33.27,33.27,0,0,1-13.71-3.56,40.49,40.49,0,0,1-5.48-3.75c-.43-.41-.5-.61-.19-1,.13-.25.44-.7,1.06-1.61,1-1.35,1.06-1.53,1.16-1.7a.8.8,0,0,1,1.25-.13l.1.1a1.68,1.68,0,0,0,.24.2c.18.14.31.21.34.28a26.44,26.44,0,0,0,15.26,5.81c7.46-.1,12.81-3.45,13.8-8.63,1-5.63-3.43-10.55-12.11-13.3A91.92,91.92,0,0,1,84.38,303c-5.95-3.49-8.75-8.07-8.34-13.74.61-7.85,7.9-13.69,17.11-13.74a31.15,31.15,0,0,1,12.11,2.5,30.5,30.5,0,0,1,4.77,2.61c.5.38.61.78.3,1.24-.1.27-.41.69-.93,1.57h0c-.76,1.17-.79,1.21-.93,1.47-.27.43-.66.46-1.18.16a25.28,25.28,0,0,0-14-4.37c-6.4.1-11.21,3.91-11.52,9.14-.06,4.69,3.45,8.11,11,10.68,15.43,5,21.32,10.79,20.2,20m-19-81c10,0,18.23,9.51,18.63,21.44H75.33c.36-11.93,8.57-21.44,18.6-21.44m52,23.7a2.22,2.22,0,0,0-2.19-2.26H119.57c-.61-15.74-11.86-28.32-25.64-28.32s-25,12.58-25.61,28.32H44.15A2.23,2.23,0,0,0,42,263.19v.18h0l3.44,75.92c0,.2,0,.41,0,.66v.26l0,0c.51,5.3,4.34,9.52,9.56,9.72v0h77v0a10.5,10.5,0,0,0,10.06-9.77h0l0-.1V340c0-.16,0-.26,0-.42l3.74-76.23h0v-.11" transform="translate(-41.95 -232.61)"/><path id="path7" class="cls-1" d="M514,313.78a16.86,16.86,0,0,1,16.4-11.86,18,18,0,0,1,16.78,11.86l.37.39H513.93Zm40.82,10.31h.37a3.14,3.14,0,0,0,2.86-3.06,2.34,2.34,0,0,0,0-.39v-.17c0-15.85-12.38-28.42-27.63-28.42s-27.46,12.57-27.46,28.42a19.73,19.73,0,0,0,.22,3.61h0l.11.34a27.43,27.43,0,0,0,6.9,14.91h0a28.72,28.72,0,0,0,16.4,9.16H527a2.34,2.34,0,0,1,.77.08c8.39,1.05,15.95-.08,22.12-3.29,1.53-.81,3-1.76,4.2-2.52a3,3,0,0,1,1.14-.83c0-.31.2-.31.35-.31,1.28-1.53,1.5-2,.5-3.44-.85-1.53-1.61-2.66-2.37-3.81-.39-.38-.45-.77-.77-.92v-.22h-.1c-.8-1.15-1.42-1.15-2.19-.39,0,0-.38.39-.39.39-6.09,5.34-14.48,7.14-22.72,5.34a24.44,24.44,0,0,1-4.35-1.53,19,19,0,0,1-9.92-12.59v-.38h41.59ZM448.4,313.78a16.87,16.87,0,0,1,16.44-11.86,18,18,0,0,1,16.79,11.86l.33.39H448.4Zm40.89,10.31h.3a3.21,3.21,0,0,0,2.94-3.06,2.34,2.34,0,0,0,0-.39v-.17c0-15.85-12.46-28.42-27.69-28.42s-27.49,12.57-27.49,28.42a14.11,14.11,0,0,0,.31,3.61h0l.06.34a27.39,27.39,0,0,0,6.87,14.91h0A28.63,28.63,0,0,0,461,348.5h.4a2.11,2.11,0,0,1,.76.08c8.39,1.05,16-.08,22.12-3.29a48.67,48.67,0,0,0,4.19-2.52,3,3,0,0,1,1.15-.83c0-.31.28-.31.38-.31,1.33-1.53,1.52-2,.55-3.44s-1.69-2.66-2.46-3.81c-.38-.38-.38-.77-.76-.92v-.22h0c-.8-1.15-1.5-1.15-2.27-.39l-.39.39A25.7,25.7,0,0,1,462,338.58a26.73,26.73,0,0,1-4.43-1.53,19.2,19.2,0,0,1-9.91-12.59v-.38h41.65Zm-90.87,15.63a18.85,18.85,0,0,1-19-18.31v-1a18.9,18.9,0,1,1,19,19.26m0-47.57a28.58,28.58,0,0,0-18.32,6.5l-.66.62v-5.33c0-1.52-.2-1.79-1.69-1.79h-6.54c-1.47,0-1.74.27-1.74,1.79v83.77c0,1.3.27,1.68,1.74,1.68h6.54c1.46,0,1.69-.38,1.69-1.68V342.77l.66.39a28.85,28.85,0,1,0,18.32-51m-68,46.83a18.51,18.51,0,1,1,18.89-18.51A18.63,18.63,0,0,1,330.44,339m0-46.93c-16,0-29,12.57-29,28.46s13,28.36,29,28.36,29-12.58,29-28.36-13-28.46-29-28.46m-64.65.53A27,27,0,0,0,249.62,298l-.56.48v-38.9c0-1.44-.43-1.81-1.71-1.81h-6.92c-1.34,0-1.72.37-1.72,1.81v88.58c0,1.52.38,1.91,1.72,1.91h6.92c1.28,0,1.71-.45,1.71-1.91v-29a16.76,16.76,0,0,1,33.51.16v28.83c0,1.52.27,1.91,1.72,1.91h6.87c1.52,0,1.71-.39,1.71-1.91v-29c0-14.5-12.21-26.54-27.08-26.54m-96.12,41.3,0,.06c-1,1.44-1.48,2-1.69,2.35-.76,1.14-.64,1.73.56,2.66a45.88,45.88,0,0,0,8.69,5.73A51.91,51.91,0,0,0,198.7,350a43.71,43.71,0,0,0,15.79-3A24.3,24.3,0,0,0,229.12,327c1.49-14.51-8-23.54-32.22-30.83h0c-11.37-3.77-16.7-8.67-16.7-15.32.37-7.52,7.31-13.24,16.72-13.56a37.7,37.7,0,0,1,20.77,6.43c1.4.76,2,.59,2.92-.71a13.43,13.43,0,0,0,1.7-2.35h0a20.37,20.37,0,0,0,1.55-2.28c.8-1.53.75-2.15-.73-3.06a42.88,42.88,0,0,0-7.48-4,52,52,0,0,0-19.14-3.62c-14.61.37-26.05,9.91-26.81,22.36-.4,8.92,4.18,16.15,13.72,21.49,2.67,1.53,12.4,5.23,17,6.5,13,3.81,19.82,10.76,18.33,19.07-1.18,7.61-9.09,12.58-20.07,12.93a41.72,41.72,0,0,1-23.06-8.36,1,1,0,0,0-.57-.39c-.44-.37-.44-.37-.57-.39-1.34-1.13-2.27-1.11-3.06.39a14.43,14.43,0,0,0-1.71,2.56" transform="translate(-41.95 -232.61)"/></svg>