<svg id="Layer_10" data-name="Layer 10" xmlns="http://www.w3.org/2000/svg" viewBox="0 0 507.02 124.75"><defs><style>.cls-1{fill:#1ed760;}</style></defs><path class="cls-1" d="M108.87,237.62A62.38,62.38,0,1,0,171.24,300a62.38,62.38,0,0,0-62.37-62.38Zm28.6,90a3.89,3.89,0,0,1-5.35,1.29c-14.64-8.95-33.08-11-54.79-6a3.89,3.89,0,1,1-1.73-7.59c23.76-5.43,44.14-3.09,60.58,7A3.88,3.88,0,0,1,137.47,327.59Zm7.64-17a4.87,4.87,0,0,1-6.69,1.61c-16.77-10.31-42.33-13.29-62.16-7.27a4.87,4.87,0,0,1-2.83-9.31c22.66-6.87,50.82-3.54,70.08,8.29a4.87,4.87,0,0,1,1.6,6.68Zm.65-17.68c-20.1-11.94-53.27-13-72.46-7.21a5.84,5.84,0,1,1-3.39-11.17c22-6.69,58.66-5.4,81.81,8.34a5.84,5.84,0,0,1-5.95,10Zm79.92,1.25c-15.27-3.64-18-6.2-18-11.57,0-5.07,4.77-8.48,11.88-8.48,6.88,0,13.7,2.59,20.86,7.93a1,1,0,0,0,1.42-.23l7.45-10.51a1,1,0,0,0-.19-1.36,45.13,45.13,0,0,0-29.32-10.16c-16.49,0-28,9.9-28,24,0,15.18,9.94,20.56,27.11,24.71,14.6,3.36,17.08,6.18,17.08,11.22,0,5.59-5,9.06-13,9.06-8.92,0-16.19-3-24.32-10a1.06,1.06,0,0,0-.73-.24,1,1,0,0,0-.69.35l-8.36,9.94a1,1,0,0,0,.09,1.4,49.82,49.82,0,0,0,33.67,12.9c17.76,0,29.24-9.7,29.24-24.73,0-12.68-7.56-19.7-26.16-24.23Zm66.38-15.06c-7.7,0-14,3-19.23,9.25v-7a1,1,0,0,0-1-1H258.16a1,1,0,0,0-1,1v77.73a1,1,0,0,0,1,1h13.68a1,1,0,0,0,1-1V334.56a24.6,24.6,0,0,0,19.23,8.7c14.31,0,28.8-11,28.8-32.07s-14.47-32.08-28.79-32.08ZM305,311.19c0,10.72-6.6,18.2-16.07,18.2s-16.4-7.82-16.4-18.2S279.55,293,288.89,293,305,300.64,305,311.19Zm53-32.08c-18.43,0-32.87,14.19-32.87,32.31,0,17.92,14.35,31.95,32.65,31.95,18.49,0,33-14.14,33-32.18S376.34,279.11,358,279.11Zm0,50.39c-9.8,0-17.19-7.88-17.19-18.32s7.14-18.09,17-18.09,17.29,7.87,17.29,18.32S367.87,329.5,358,329.5Zm72.09-49.14H415V265a1,1,0,0,0-1-1H400.36a1,1,0,0,0-1,1v15.38h-6.57a1,1,0,0,0-1,1v11.75a1,1,0,0,0,1,1h6.57v30.4c0,12.29,6.12,18.52,18.19,18.52a25,25,0,0,0,12.8-3.19,1,1,0,0,0,.5-.87V327.79a1,1,0,0,0-.47-.85,1,1,0,0,0-1,0,17.28,17.28,0,0,1-8,1.93c-4.38,0-6.35-2-6.35-6.45V294.12h15.05a1,1,0,0,0,1-1V281.37a1,1,0,0,0-1-1Zm52.42.06v-1.89c0-5.56,2.14-8,6.91-8a23,23,0,0,1,7.71,1.42,1,1,0,0,0,1.31-.95V259.44a1,1,0,0,0-.71-1,37.64,37.64,0,0,0-11.36-1.63c-12.62,0-19.31,7.11-19.31,20.56v2.89h-6.56a1,1,0,0,0-1,1v11.81a1,1,0,0,0,1,1H467V341a1,1,0,0,0,1,1h13.66a1,1,0,0,0,1-1V294.12h12.76L515,341c-2.22,4.92-4.4,5.9-7.38,5.9a15.75,15.75,0,0,1-7.54-2.14,1.09,1.09,0,0,0-.79-.08,1,1,0,0,0-.59.54L494.1,355.4a1,1,0,0,0,.43,1.3,28.78,28.78,0,0,0,14.6,3.74c10.09,0,15.68-4.71,20.59-17.36l23.72-61.29a1,1,0,0,0-.11-.93,1,1,0,0,0-.81-.43H538.28a1,1,0,0,0-.95.67l-14.58,41.64-16-41.67a1,1,0,0,0-.93-.64H482.49Zm-30.39-.06H438.43a1,1,0,0,0-1,1V341a1,1,0,0,0,1,1H452.1a1,1,0,0,0,1-1V281.37a1,1,0,0,0-1-1Zm-6.76-27.16a9.81,9.81,0,1,0,9.8,9.8A9.81,9.81,0,0,0,445.34,253.2Z" transform="translate(-46.49 -237.62)"/></svg>