<svg id="talabat" xmlns="http://www.w3.org/2000/svg" viewBox="0 0 599.83 126.84"><defs><style>.cls-1{fill:#ff5a00;}</style></defs><g id="g18"><path id="path4" class="cls-1" d="M71.53,338.84a18.36,18.36,0,0,1-6,1c-6.51,0-9.65-3.43-12.5-8.57a19.31,19.31,0,0,1-1.47-5.19V297.91H75.69l-1.27-11.24A11,11,0,0,0,63.54,277H51.62V242.11s-7.2.48-9.61.66c-12.33,1-20.66,9.17-20.66,18.77l0,16.2-21.32.78v8.1a11.27,11.27,0,0,0,11.26,11.27h10v28.85l.15,4.21a32.64,32.64,0,0,0,50,27.46V338.84Z" transform="translate(-0.08 -236.58)"/><path id="path6" class="cls-1" d="M273.08,342a17.06,17.06,0,0,0,7-5.53v-7.14a29.17,29.17,0,0,0-16.67-4.92q-6,0-9.18,2.55c-2.16,1.69-3.23,4.19-3.23,7.47a8.67,8.67,0,0,0,3.14,7.14c2.1,1.69,5.12,2.55,9.1,2.55a23,23,0,0,0,9.86-2.12m-43.46,13.09q-9.44-7.38-9.43-20.66,0-13.77,9.09-21.17t26.1-7.4a62.5,62.5,0,0,1,13.28,1.44,49.55,49.55,0,0,1,11.4,3.82v-1.7q0-13.08-21.43-13.09c-10,0-16.09.62-24.37,4.48,0,0-1.12-8.26-1.39-11-.61-6.2,4.28-10.84,12.49-12.34l.18,0a102.35,102.35,0,0,1,18.35-1.62q22.8,0,34.45,9.1T310,310.24v37.32c0,10-3.5,12.33-11.77,12.33H282.71l-.78-7a32.72,32.72,0,0,1-11.56,7,46.65,46.65,0,0,1-16,2.55q-15.33,0-24.76-7.39" transform="translate(-0.08 -236.58)"/><path id="path8" class="cls-1" d="M485.05,342a17,17,0,0,0,7-5.53v-7.14a29.14,29.14,0,0,0-16.66-4.92c-4,0-7,.85-9.19,2.55s-3.23,4.19-3.23,7.47a8.69,8.69,0,0,0,3.14,7.14c2.11,1.69,5.12,2.55,9.1,2.55a23,23,0,0,0,9.87-2.12m-43.44,13.09q-9.45-7.38-9.44-20.66,0-13.77,9.1-21.17t26.1-7.4a62.4,62.4,0,0,1,13.27,1.44,49.22,49.22,0,0,1,11.4,3.82v-1.7q0-13.08-21.42-13.09c-10,0-16.1.62-24.37,4.48,0,0-1.13-8.26-1.39-11-.61-6.2,4.28-10.84,12.48-12.34l.18,0a102.54,102.54,0,0,1,18.36-1.62q22.8,0,34.45,9.1T522,310.24v37.32c0,10-3.5,12.33-11.78,12.33H494.7l-.79-7a32.72,32.72,0,0,1-11.56,7,46.59,46.59,0,0,1-16,2.55q-15.33,0-24.76-7.39" transform="translate(-0.08 -236.58)"/><path id="path10" class="cls-1" d="M131.29,342a17.06,17.06,0,0,0,7-5.53v-7.14a29.17,29.17,0,0,0-16.66-4.92c-4,0-7,.85-9.19,2.55s-3.23,4.19-3.23,7.47a8.67,8.67,0,0,0,3.14,7.14c2.1,1.69,5.12,2.55,9.1,2.55a23,23,0,0,0,9.86-2.12M87.84,355.05q-9.45-7.38-9.44-20.66,0-13.77,9.1-21.17t26.1-7.4a62.47,62.47,0,0,1,13.27,1.44,49.55,49.55,0,0,1,11.4,3.82v-1.7q0-13.08-21.43-13.09c-10,0-16.07.62-24.35,4.48,0,0-1.12-8.26-1.39-11-.61-6.2,4.28-10.84,12.49-12.34l.18,0a102.35,102.35,0,0,1,18.35-1.62q22.8,0,34.45,9.1t11.65,25.42v37.32c0,10-3.5,12.33-11.77,12.33H140.94l-.78-7a32.9,32.9,0,0,1-11.56,7,46.63,46.63,0,0,1-16,2.55q-15.36,0-24.78-7.39" transform="translate(-0.08 -236.58)"/><path id="path12" class="cls-1" d="M209.84,359.9l0-123.32s-7.12.46-9.49.66c-12.17,1-20.39,9.08-20.39,18.59l0,104.09h29.92Z" transform="translate(-0.08 -236.58)"/><path id="path14" class="cls-1" d="M386.79,334q-5.62,5.34-14.79,5.35a22.22,22.22,0,0,1-12.24-3.48,19.59,19.59,0,0,1-7.83-9.44V312a19.53,19.53,0,0,1,7.83-9.43A22.22,22.22,0,0,1,372,299q9.18,0,14.79,5.44c3.73,3.62,5.62,8.56,5.62,14.79s-1.88,11.13-5.62,14.7m30.95-37.41a38.43,38.43,0,0,0-15.22-15.4,46,46,0,0,0-22.71-5.44,48.88,48.88,0,0,0-15.55,2.46,35.94,35.94,0,0,0-12.33,6.73l.05-48.33s-7.13.46-9.52.66c-12.2,1-20.46,9.08-20.46,18.59V359.92h28.13l.78-8.17q11.4,10.71,28.92,10.71a46.65,46.65,0,0,0,22.62-5.36A37.9,37.9,0,0,0,417.76,342a46,46,0,0,0,5.44-22.71,46.85,46.85,0,0,0-5.46-22.71" transform="translate(-0.08 -236.58)"/><path id="path16" class="cls-1" d="M595.76,338.84a18.36,18.36,0,0,1-6,1c-6.51,0-9.65-3.43-12.5-8.57a19.31,19.31,0,0,1-1.47-5.19V297.91h24.09l-1.27-11.24A11,11,0,0,0,587.77,277H575.85V242.11s-7.21.48-9.62.66c-12.32,1-20.65,9.17-20.65,18.77l0,16.2-21.32.78v8.1a11.27,11.27,0,0,0,11.26,11.27h10v28.85l.15,4.21a32.63,32.63,0,0,0,50,27.44Z" transform="translate(-0.08 -236.58)"/></g></svg>