<svg id="Layer_19" data-name="Layer 19" xmlns="http://www.w3.org/2000/svg" viewBox="0 0 600 85.36"><defs><style>.cls-1{fill:#e42529;}</style></defs><path class="cls-1" d="M0,257.52c1.91,7.44,8.35,15.05,17.19,17H43.9l1.36.54v67.4H61.94V275l1.52-.54H90.19a24,24,0,0,0,17.11-17v-.16H0v.16" transform="translate(0 -257.32)"/><path class="cls-1" d="M151.42,342.6h63.45c8.83-1.75,15.39-9.53,17.23-17.06H134.19c1.83,7.53,8.48,15.31,17.23,17.06" transform="translate(0 -257.32)"/><path class="cls-1" d="M151.42,308h63.45c8.83-1.74,15.39-9.52,17.23-17.06H134.19c1.83,7.54,8.48,15.32,17.23,17.06" transform="translate(0 -257.32)"/><path class="cls-1" d="M151.42,274.39h63.45c8.83-1.76,15.39-9.54,17.23-17.07H134.19c1.83,7.53,8.48,15.31,17.23,17.07" transform="translate(0 -257.32)"/><path class="cls-1" d="M282.47,274.22h58.62c8.84-2.56,16.26-9.3,18.07-16.76H266v50.31h76.22v17.65l-59.79.05c-9.37,2.61-17.31,8.9-21.28,17.21l4.85-.09h92.59V291H282.47V274.22" transform="translate(0 -257.32)"/><path class="cls-1" d="M468.3,342.61c8.33-3.52,12.8-9.63,14.52-16.77h-74l.05-68.4-16.6,0v85.13H468.3" transform="translate(0 -257.32)"/><path class="cls-1" d="M519.3,274.45h63.48c8.81-1.75,15.37-9.53,17.22-17.06H502.08c1.83,7.53,8.48,15.31,17.22,17.06" transform="translate(0 -257.32)"/><path class="cls-1" d="M504.63,291.1v51.48h16.51V308.31h60.08v34.27h16.5V291.19l-93.09-.09" transform="translate(0 -257.32)"/></svg>