<svg id="Layer_21" data-name="Layer 21" xmlns="http://www.w3.org/2000/svg" viewBox="0 0 572.54 124.55"><defs><style>.cls-1{fill:#ff004f;}.cls-2{fill:#00f2ea;}</style></defs><path class="cls-1" d="M96.58,282.68a48.93,48.93,0,0,0,28.54,9.13V271.35a28.74,28.74,0,0,1-6-.63v16.11a48.93,48.93,0,0,1-28.54-9.13v41.77A37.87,37.87,0,0,1,31.67,350.9a37.86,37.86,0,0,0,64.92-26.45V282.68ZM104,262a28.58,28.58,0,0,1-7.4-16.7V242.7H90.91A28.66,28.66,0,0,0,104,262ZM44.9,334.86a17.3,17.3,0,0,1,19-27V287a38.75,38.75,0,0,0-6-.34v16.28a17.31,17.31,0,0,0-13,31.95Z" transform="translate(-14.9 -237.72)"/><path d="M90.59,277.7a48.93,48.93,0,0,0,28.54,9.13V270.72A28.7,28.7,0,0,1,104,262,28.66,28.66,0,0,1,90.91,242.7H76v81.75a17.32,17.32,0,0,1-31.1,10.41,17.31,17.31,0,0,1,7.79-32.76,17.54,17.54,0,0,1,5.26.81V286.63A37.82,37.82,0,0,0,31.68,350.9a37.85,37.85,0,0,0,58.91-31.43V277.7Z" transform="translate(-14.9 -237.72)"/><path class="cls-2" d="M119.13,270.72v-4.36A28.54,28.54,0,0,1,104,262,28.65,28.65,0,0,0,119.13,270.72Zm-28.22-28c-.14-.77-.25-1.56-.32-2.34v-2.64H70v81.75a17.32,17.32,0,0,1-25.11,15.39A17.32,17.32,0,0,0,76,324.45V242.7Zm-33,43.93V282a39.23,39.23,0,0,0-5.19-.35A37.83,37.83,0,0,0,31.68,350.9a37.82,37.82,0,0,1,26.26-64.27Z" transform="translate(-14.9 -237.72)"/><path class="cls-1" d="M460,353.88a40.48,40.48,0,1,0,0-80.95h-6.15a40.48,40.48,0,1,1,0,80.95Z" transform="translate(-14.9 -237.72)"/><path class="cls-2" d="M453.28,272.93h-6.15a40.48,40.48,0,1,0,0,80.95h6.15a40.48,40.48,0,1,1,0-80.95Z" transform="translate(-14.9 -237.72)"/><path d="M143.06,254.64v20.51h24v78.18h24V275.71h19.56l6.71-21.07Zm196.75,0v20.51h24v78.18h24V275.71h19.57l6.7-21.07ZM221.88,266.28a11.73,11.73,0,1,1,11.72,11.64A11.67,11.67,0,0,1,221.88,266.28Zm0,20h23.46v67.09H221.88Zm33.53-31.6v98.69h23.48v-25.5l7.26-6.66,22.92,32.71h25.15l-33-47.68,29.62-28.83h-28.5l-23.47,23.28v-46Zm253.2,0v98.69h23.48v-25.5l7.27-6.66,22.92,32.71h25.15l-33-47.68,29.63-28.83H555.57l-23.48,23.28v-46Z" transform="translate(-14.9 -237.72)"/><path d="M453.84,353.88a40.48,40.48,0,1,0,0-80.95h-.56a40.48,40.48,0,1,0,0,80.95Zm-20.13-40.47a19.85,19.85,0,1,1,19.85,19.68A19.77,19.77,0,0,1,433.71,313.41Z" transform="translate(-14.9 -237.72)"/></svg>